<svg xmlns="http://www.w3.org/2000/svg" version="1.1" xmlns:xlink="http://www.w3.org/1999/xlink" width="512" height="512" x="0" y="0" viewBox="0 0 512 512" style="enable-background:new 0 0 512 512" xml:space="preserve" class=""><g><circle cx="278.276" cy="254.363" r="138.241" fill="#ffd6b5" transform="rotate(-45 278.25 254.432)" opacity="1" data-original="#a4d4ff" class=""></circle><g fill-rule="evenodd"><path fill="#ff7300" d="M278.276 116.122a139.037 139.037 0 0 1 24.5 2.165c2.106 6.8 1.193 15.092 1.33 18.153.657 14.693-32.836-2.759-28.313 22.893 4.382 24.856-29.763 32.618-20.566 51.61 6.655 13.743 29.662 12.556 35.273 16.326 9.618 6.464-26.115 31.928-13.159 53.881 17.532 29.709 1.718 36.438-4.3 36.032-9.3-.63-15.243-30.176-38.122-40.953-34.661-16.326-38.549-14.874-46.04-25.769-20.758-30.194-7.5-25.026-13.672-44.767-2.421-7.746-5.009-19.626-14.454-24.139a138.217 138.217 0 0 1 104.74-64.837c4.207-.387 8.472-.595 12.783-.595zM368.092 149.282a138.4 138.4 0 0 1 42.342 145.745c-1.143-4.118-3.32-8.556-9.418-13.006-42.271-30.852-9.5-21.941-29.2-50.233-25.325-36.369-5.516-32.573-6.139-57.105a92.85 92.85 0 0 1 2.415-25.401zM295.909 391.489a139.59 139.59 0 0 1-17.633 1.114 137.63 137.63 0 0 1-84.3-28.682c26-13.026 38.277-2.476 51.043-2.637 17.556-.22 34.3-7.4 45.644 14.05a44.758 44.758 0 0 1 5.246 16.155z" opacity="1" data-original="#89c053" class=""></path><path fill="#9f92ff" d="M48.276 330.293C86.3 312.676 141.738 317.45 192.2 346.586s82.317 74.756 86.075 116.5c-38.028 17.617-93.462 12.843-143.927-16.293s-82.315-74.76-86.072-116.5z" opacity="1" data-original="#97c662" class=""></path><path fill="#19124f" d="M125.737 406.9a8 8 0 0 1 11.312-11.312c78 78 204.457 78 282.454 0s78-204.458 0-282.454-204.457-77.995-282.453 0a199.106 199.106 0 0 0-57.474 120.894l29.874-29.875a8 8 0 1 1 11.313 11.312l-44.514 44.514a7.994 7.994 0 0 1-11.393 0l-44.513-44.514a8 8 0 0 1 11.313-11.312l31.685 31.685c9.433-110.909 102.475-197.2 214.935-197.2C397.415 38.639 494 135.224 494 254.363s-96.585 215.724-215.724 215.724A215.047 215.047 0 0 1 125.737 406.9z" opacity="1" data-original="#388f4b" class=""></path></g></g></svg>