<svg xmlns="http://www.w3.org/2000/svg" version="1.1" xmlns:xlink="http://www.w3.org/1999/xlink" width="512" height="512" x="0" y="0" viewBox="0 0 128 128" style="enable-background:new 0 0 512 512" xml:space="preserve" class=""><g><g fill="#5c8eff"><path d="M10.559 80.646a57.246 57.246 0 0 1-1.247-4.708 1.5 1.5 0 0 0-2.93.643c.364 1.66.805 3.327 1.311 4.956a1.5 1.5 0 0 0 2.866-.891zM14.227 89.655a57.451 57.451 0 0 1-2.026-4.426 1.5 1.5 0 1 0-2.779 1.13 59.8 59.8 0 0 0 2.133 4.66 1.5 1.5 0 0 0 2.672-1.364zM7.178 72.826a1.5 1.5 0 0 0 1.291-1.683c-.212-1.6-.358-3.23-.436-4.853a1.473 1.473 0 0 0-1.569-1.427 1.5 1.5 0 0 0-1.427 1.57c.081 1.707.235 3.423.457 5.1a1.5 1.5 0 0 0 1.684 1.291zM16.621 93.9a1.5 1.5 0 1 0-2.547 1.584 62.133 62.133 0 0 0 2.886 4.233 1.5 1.5 0 1 0 2.406-1.793 61.802 61.802 0 0 1-2.745-4.024zM33.4 111.312a58.23 58.23 0 0 1-3.921-2.894 1.5 1.5 0 1 0-1.88 2.338 60.987 60.987 0 0 0 4.124 3.042 1.5 1.5 0 0 0 2.082-.4 1.5 1.5 0 0 0-.405-2.086zM22.437 101.7a1.5 1.5 0 1 0-2.246 1.989 61.672 61.672 0 0 0 3.557 3.69 1.5 1.5 0 1 0 2.07-2.17 60.201 60.201 0 0 1-3.381-3.509zM65.584 2.9A60.737 60.737 0 0 0 16 28.644a1.5 1.5 0 0 0 2.453 1.728A57.6 57.6 0 1 1 41.9 116.054a57.087 57.087 0 0 1-4.35-2.192 1.5 1.5 0 1 0-1.463 2.619 60.331 60.331 0 0 0 4.579 2.307A60.621 60.621 0 1 0 65.584 2.9z" fill="#19124f" opacity="1" data-original="#5c8eff"></path><path d="M12.336 31.105a4.169 4.169 0 0 0 4.779 3.453l7.748-1.248a1.5 1.5 0 0 0-.476-2.961L16.639 31.6a1.175 1.175 0 0 1-1.342-.969l-1.248-7.751a1.5 1.5 0 0 0-2.961.476z" fill="#19124f" opacity="1" data-original="#5c8eff"></path></g><path fill="#ff7300" d="M105.39 42.15v42.73a3.337 3.337 0 0 1-1.76 2.93l-36.45 19.2a3.312 3.312 0 0 1-3.09 0l-36.45-19.2a3.327 3.327 0 0 1-1.77-2.93V42.15a3.3 3.3 0 0 1 1.77-2.93l36.45-19.21a3.312 3.312 0 0 1 3.09 0l11.55 6.09 11.57 6.1 13.33 7.02a3.314 3.314 0 0 1 1.76 2.93z" opacity="1" data-original="#1fc9c9" class=""></path><path fill="#f7ecda" d="M65.635 61.375a4.81 4.81 0 0 1-2.174-.518l-36.3-18.375a1.5 1.5 0 1 1 1.356-2.675l36.3 18.375a1.822 1.822 0 0 0 1.637 0l36.238-18.342a1.5 1.5 0 1 1 1.356 2.676L67.809 60.857a4.813 4.813 0 0 1-2.174.518z" opacity="1" data-original="#f7ecda"></path><path fill="#f7ecda" d="M90.3 32.2 52.09 51.54a3.324 3.324 0 0 0-1.82 2.96v17.14a1.653 1.653 0 0 1-2.85 1.14l-3.28-3.42a1.646 1.646 0 0 0-1.54-.48l-2.14.46a1.655 1.655 0 0 1-2.01-1.62V48.51a3.309 3.309 0 0 1 1.82-2.95L78.72 26.1h.01zM65.633 106.9a1.5 1.5 0 0 1-1.5-1.5V59.877a1.5 1.5 0 1 1 3 0V105.4a1.5 1.5 0 0 1-1.5 1.5z" opacity="1" data-original="#f7ecda"></path></g></svg>