<?xml version="1.0" encoding="utf-8"?>
<!-- Generator: Adobe Illustrator 27.3.1, SVG Export Plug-In . SVG Version: 6.00 Build 0)  -->
<!DOCTYPE svg PUBLIC "-//W3C//DTD SVG 1.1//EN" "http://www.w3.org/Graphics/SVG/1.1/DTD/svg11.dtd" [
	<!ENTITY ns_extend "http://ns.adobe.com/Extensibility/1.0/">
	<!ENTITY ns_ai "http://ns.adobe.com/AdobeIllustrator/10.0/">
	<!ENTITY ns_graphs "http://ns.adobe.com/Graphs/1.0/">
	<!ENTITY ns_vars "http://ns.adobe.com/Variables/1.0/">
	<!ENTITY ns_imrep "http://ns.adobe.com/ImageReplacement/1.0/">
	<!ENTITY ns_sfw "http://ns.adobe.com/SaveForWeb/1.0/">
	<!ENTITY ns_custom "http://ns.adobe.com/GenericCustomNamespace/1.0/">
	<!ENTITY ns_adobe_xpath "http://ns.adobe.com/XPath/1.0/">
]>
<svg version="1.1" id="Layer_1" xmlns:x="&ns_extend;" xmlns:i="&ns_ai;" xmlns:graph="&ns_graphs;"
	 xmlns="http://www.w3.org/2000/svg" xmlns:xlink="http://www.w3.org/1999/xlink" x="0px" y="0px" width="512px" height="512px"
	 viewBox="0 0 512 512" style="enable-background:new 0 0 512 512;" xml:space="preserve">
<style type="text/css">
	.st0{fill-rule:evenodd;clip-rule:evenodd;fill:#FF7300;}
	.st1{fill:#FF7300;}
	.st2{fill-rule:evenodd;clip-rule:evenodd;fill:#19124F;}
</style>
<metadata>
	<sfw  xmlns="&ns_sfw;">
		<slices></slices>
		<sliceSourceBounds  bottomLeftOrigin="true" height="432" width="512" x="0" y="40"></sliceSourceBounds>
	</sfw>
</metadata>
<rect x="59.6" y="118.3" class="st0" width="422.2" height="62.3"/>
<path class="st0" d="M450.4,317.4c0,3.3-2.7,6-6,6H309.2c-3.3,0-6-2.7-6-6s2.7-6,6-6h135.2C447.7,311.4,450.4,314.1,450.4,317.4
	L450.4,317.4z"/>
<path class="st1" d="M208.5,370.5c10.1-30,12.4-64.3,12.4-105.4c0-2.3-1.4-4.5-3.5-5.5l-104.5-47.5c-1.6-0.7-3.4-0.7-5,0L42.4,242
	l-12,5.5L3.5,259.7c-2.1,1-3.5,3.1-3.5,5.5c0,47.5,3,86,17.7,119.1c15.7,35.5,44.3,63.2,90,87.1c1.7,0.9,3.8,0.9,5.5,0
	c45.7-23.9,74.3-51.5,90-87.1c0.3-0.6,0.5-1.2,0.8-1.8L208.5,370.5z M164.4,312l-58.6,58.6c-1.1,1.1-2.7,1.8-4.2,1.8
	c-1.6,0-3.1-0.6-4.2-1.8l-31.4-31.4c-2.3-2.3-2.3-6.1,0-8.5c2.3-2.3,6.1-2.3,8.5,0l27.2,27.2l54.4-54.4c2.3-2.3,6.1-2.3,8.5,0
	C166.8,305.9,166.8,309.7,164.4,312z"/>
<path class="st2" d="M482.5,40H59.9c-16.3,0-29.5,13.2-29.5,29.5v173.3l12-5.5V69.5c0-9.7,7.8-17.5,17.5-17.5h422.6
	c9.7,0,17.5,7.8,17.5,17.5V353c0,9.7-7.8,17.5-17.5,17.5H213c-0.1,0.5-0.3,0.9-0.4,1.4l-0.1,0.2l-4,10.5h274
	c16.3,0,29.5-13.2,29.5-29.5V69.5C512,53.2,498.8,40,482.5,40z"/>
</svg>
