<svg xmlns="http://www.w3.org/2000/svg" version="1.1" xmlns:xlink="http://www.w3.org/1999/xlink" width="512" height="512" x="0" y="0" viewBox="0 0 64 64" style="enable-background:new 0 0 512 512" xml:space="preserve" class=""><g><path fill="#ff7300" d="M32.437 17.754c1.353 4.237 5.646 3.88 7.913 9.044 2.024 4.61-.44 7.08 2.261 11.304 1.768 3.115 6.515 6.078 11.42 4.697C61.375 28.013 50.807 9.68 34.439 8.545c-2.635 4.37-2.615 7.288-2.002 9.21z" opacity="1" data-original="#4aa5ff" class=""></path><path fill="#e6f3ff" d="M48.263 42.624c-3.432-1.135-5.185-3.792-5.652-4.522-2.7-4.224-.237-6.694-2.26-11.304-2.268-5.164-6.561-4.807-7.914-9.044-.613-1.921-.633-4.838 2.002-9.21-11.112-1.04-21.395 6.046-24.77 16.123 3.647.337 9.124 1.515 12.594 5.522.912 1.053 2.158 2.492 2.261 4.522.187 3.697-3.645 4.933-3.391 7.913.284 3.336 5.252 3.72 6.782 7.913.67 1.835.44 3.75-.113 5.473C38.507 58.23 49.683 52.262 54.03 42.8c-1.596.387-3.616.536-5.768-.175z" opacity="1" data-original="#e6f3ff" class=""></path><path fill="#ff7300" d="M27.915 50.537c-1.53-4.193-6.498-4.577-6.782-7.913-.254-2.98 3.578-4.216 3.391-7.913-.102-2.03-1.35-3.47-2.26-4.522-3.471-4.007-8.948-5.185-12.594-5.522-4.913 13.464 4.295 29 18.132 31.343.552-1.722.783-3.638.113-5.473z" opacity="1" data-original="#4aa5ff" class=""></path><path fill="#19124f" d="M32.372 57.45c-13.785 0-25-11.215-25-25 1.373-33.166 48.632-33.156 50 0 0 13.785-11.215 25-25 25zm0-48c-12.683 0-23 10.317-23 23 1.263 30.513 44.742 30.504 46 0 0-12.683-10.317-23-23-23z" opacity="1" data-original="#21257c" class=""></path><path fill="#19124f" d="M47.372 9.783c-.667.01-1.173-.682-.948-1.316l1.333-4a1 1 0 1 1 1.896.633l-1.333 4a1 1 0 0 1-.948.683z" opacity="1" data-original="#21257c" class=""></path><path fill="#19124f" d="M51.372 11.117c.23.172-4.339-1.406-4.316-1.386-1.237-.434-.625-2.293.632-1.896l4 1.334c1.066.341.788 1.966-.316 1.948zM55.256 60.202C42.77 61.148-3.11 16.588 4.772 5.742c2.909-2.904 9.9.67 15.255 4.177 1.097.735-.005 2.38-1.096 1.674C5.988 3.39 1.891 5.245 9.45 18.047c7.068 11.947 24.486 29.365 36.434 36.433 10.03 5.892 14.764 5.572 8.72-5.737-.617-1.17 1.105-2.097 1.753-.963 3.61 6.592 4.534 12.099-1.1 12.422z" opacity="1" data-original="#21257c" class=""></path><path fill="#19124f" d="M59.145 49.783c.23.172-4.338-1.405-4.316-1.385-1.237-.433-.624-2.295.633-1.896l4 1.333c1.065.34.788 1.967-.317 1.948z" opacity="1" data-original="#21257c" class=""></path><path fill="#19124f" d="M53.812 52.45c-.666.01-1.172-.683-.948-1.316l1.333-4a1 1 0 1 1 1.896.633l-1.332 4a1 1 0 0 1-.949.683z" opacity="1" data-original="#21257c" class=""></path><g fill="#4aa5ff"><path d="M29.372 21.45c-.163 5.287-7.838 5.286-8 0 .163-5.287 7.838-5.286 8 0z" fill="#ff7300" opacity="1" data-original="#4aa5ff" class=""></path><path d="M25.372 26.45c-2.757 0-5-2.243-5-5 .235-6.617 9.766-6.616 10 0 0 2.757-2.243 5-5 5zm0-8c-3.956.104-3.955 5.897 0 6 3.956-.104 3.955-5.897 0-6zM35.372 29.45c-.067 2.638-3.934 2.637-4 0 .067-2.638 3.934-2.637 4 0z" fill="#ff7300" opacity="1" data-original="#4aa5ff" class=""></path><path d="M33.372 32.45c-3.956-.104-3.955-5.897 0-6 3.956.104 3.955 5.897 0 6zm0-4c-1.314.023-1.314 1.977 0 2 1.314-.023 1.314-1.977 0-2zM33.372 36.45c-.067 2.638-3.934 2.637-4 0 .067-2.638 3.934-2.637 4 0z" fill="#ff7300" opacity="1" data-original="#4aa5ff" class=""></path><path d="M31.372 39.45c-3.956-.104-3.955-5.897 0-6 3.956.104 3.955 5.897 0 6zm0-4c-1.314.023-1.314 1.977 0 2 1.314-.023 1.314-1.977 0-2z" fill="#ff7300" opacity="1" data-original="#4aa5ff" class=""></path></g><path fill="#19124f" d="M28.872 46.52c.5.43 1 .87 1.5 1.32-8.47 7.11-16.91 12.36-21.78 12.36-7.71-.57-2.664-10.321 1.25-16.3a1 1 0 1 1 1.67 1.1c-12.526 19.65.699 15.14 17.36 1.52zM39.442 39.52a154.05 154.05 0 0 1-4.52 4.33c-.5-.43-1-.87-1.5-1.32C48.313 29.797 71.42-2.793 48.662 9.33c-1.163.6-2.1-1.095-.96-1.76 5.66-3.1 9.48-3.72 11.38-1.83 4.59 4.6-6.69 20.83-19.64 33.78z" opacity="1" data-original="#21257c" class=""></path></g></svg>