<svg id="Layer_1" height="512" viewBox="0 0 512 512" width="512" xmlns="http://www.w3.org/2000/svg" data-name="Layer 1"><path d="m491.45 380.77-33.51-23.62a.572.572 0 0 0 -.9.47l-.09 46.85a.567.567 0 0 0 .89.47l33.6-23.24a.565.565 0 0 0 .01-.93z" fill="#e87187"/><path d="m149 358.42-.1 46.85a.575.575 0 0 1 -.9.47l-33.51-23.63a.571.571 0 0 1 .01-.93l33.61-23.23a.567.567 0 0 1 .89.47z" fill="#e87187"/><path d="m330.17 157.42v51.13h-147.79c82.63-1.94 147.79-24.09 147.79-51.13z" fill="#8dbfce"/><path d="m182.38 208.55q-5.85.135-11.8.14c-88.13 0-159.58-22.95-159.58-51.27v118.17c0 14.38 18.44 26.83 48.13 35.6a295.211 295.211 0 0 0 38.71 8.38c11.33 1.73 23.44 3.05 36.14 3.93 11.75.81 24.01 1.24 36.6 1.24h330.42v-116.19z" fill="#a5e2fb"/><path d="m128.84 319.57a295.211 295.211 0 0 1 -38.71-8.38c-29.69-8.77-48.13-21.22-48.13-35.6v-87.8c-19.481-8.5-31-19-31-30.367v118.167c0 14.38 18.44 26.83 48.13 35.6a295.211 295.211 0 0 0 38.71 8.38c11.33 1.73 23.44 3.18 36.14 4.06 11.75.81 24.01 1.37 36.6 1.37h31c-12.59 0-24.85-.56-36.6-1.37-12.7-.88-24.81-2.33-36.14-4.06z" fill="#88c0d1"/><path d="m170.58 106.16c88.14 0 159.59 22.95 159.59 51.26 0 27.04-65.16 49.19-147.79 51.13q-5.85.135-11.8.14c-88.13 0-159.58-22.95-159.58-51.27s71.45-51.26 159.58-51.26z" fill="#e5cfa3"/><path d="m170.65 132.22c43.95 0 79.58 11.28 79.58 25.2s-35.63 25.21-79.58 25.21-79.57-11.29-79.57-25.21 35.63-25.2 79.57-25.2z" fill="#ffe6bb"/><path d="m42 157.42c0-26.63 63.224-48.515 144.081-51.019q-7.651-.237-15.5-.241c-88.131 0-159.581 22.95-159.581 51.26s71.45 51.27 159.58 51.27q5.955 0 11.8-.14 1.857-.044 3.7-.1c-80.855-2.505-144.08-24.39-144.08-51.03z" fill="#bca986"/><g fill="#284268"><path d="m494.907 375.867-33.507-23.621a6.571 6.571 0 0 0 -10.354 5.359l-.036 17.455-17.817.046a6 6 0 0 0 .015 12h.016l17.762-.046-.036 17.4a6.565 6.565 0 0 0 10.3 5.415l33.6-23.23a6.569 6.569 0 0 0 .055-10.775zm-31.939 18.233.053-26.024 18.612 13.12z"/><path d="m316.2 375.409h-.015l-24 .062a6 6 0 0 0 .015 12h.016l24-.062a6 6 0 0 0 -.016-12z"/><path d="m410.2 375.165h-.015l-24 .062a6 6 0 0 0 .015 12h.016l24-.062a6 6 0 0 0 -.016-12z"/><path d="m363.2 375.287h-.015l-24 .062a6 6 0 0 0 .015 12h.016l24-.062a6 6 0 0 0 -.016-12z"/><path d="m269.205 375.531h-.011l-24 .062a6 6 0 0 0 .015 12h.016l24-.062a6 6 0 0 0 -.016-12z"/><path d="m222.205 375.653h-.011l-24 .062a6 6 0 0 0 .015 12h.016l24-.062a6 6 0 0 0 -.016-12z"/><path d="m175.205 375.775h-.015l-20.227.052.037-17.411a6.569 6.569 0 0 0 -10.3-5.4l-33.606 23.234a6.569 6.569 0 0 0 -.051 10.772l33.51 23.621a6.571 6.571 0 0 0 10.355-5.359l.036-17.454 20.282-.052a6 6 0 0 0 -.016-12zm-32.28 19.039-18.613-13.121 18.666-12.9z"/><path d="m256.23 157.424c0-20.485-43.05-31.2-85.575-31.2s-85.575 10.719-85.575 31.2 43.049 31.2 85.575 31.2 85.575-10.713 85.575-31.2zm-159.15 0c0-6.518 25.969-19.2 73.575-19.2s73.575 12.686 73.575 19.2-25.969 19.2-73.575 19.2-73.575-12.682-73.575-19.2z"/><path d="m259 240h2a6 6 0 0 0 0-12h-2a6 6 0 0 0 0 12z"/><path d="m281 240h92a6 6 0 0 0 0-12h-92a6 6 0 0 0 0 12z"/><path d="m501 203h-165v-45.576c0-11.682-8.748-28.445-50.822-41.962-30.718-9.867-71.4-15.3-114.636-15.3s-83.942 5.438-114.657 15.3c-42.075 13.517-50.885 30.28-50.885 41.962v118.576h.016c.7 36 83.631 55 165.568 55h330.416a6.224 6.224 0 0 0 6-6.257v-116.193c0-3.314-2.686-5.55-6-5.55zm-6 116h-14v-28.449a6.165 6.165 0 0 0 -5.815-6.248 6 6 0 0 0 -6.185 6v28.697h-30v-55.926a6.167 6.167 0 0 0 -5.815-6.249 6 6 0 0 0 -6.185 6v56.175h-24v-28.449a6.165 6.165 0 0 0 -5.815-6.248 6 6 0 0 0 -6.185 6v28.697h-26v-55.926a6.167 6.167 0 0 0 -5.815-6.249 6 6 0 0 0 -6.185 6v56.175h-25v-28.449a6.165 6.165 0 0 0 -5.815-6.248 6 6 0 0 0 -6.185 6v28.697h-26v-55.926a6.167 6.167 0 0 0 -5.815-6.249 6 6 0 0 0 -6.185 6v56.175h-24v-28.449a6.165 6.165 0 0 0 -5.815-6.248 6 6 0 0 0 -6.185 6v28.697h-27v-55.926a6.167 6.167 0 0 0 -5.815-6.249 6 6 0 0 0 -6.185 6v56.175h-24v-29.976a6.167 6.167 0 0 0 -5.815-6.249 6 6 0 0 0 -6.185 6v29.955c-10-.063-18-.355-27-.847v-57.37a6.166 6.166 0 0 0 -5.815-6.249 6 6 0 0 0 -6.185 6v56.786c-8-.694-17-1.586-24-2.652v-29.957a6.167 6.167 0 0 0 -5.815-6.249 6 6 0 0 0 -6.185 6v28.329a273.678 273.678 0 0 1 -27-5.87v-53.83a6.166 6.166 0 0 0 -5.815-6.249 6 6 0 0 0 -6.185 6v50.4c-23-7.9-36-17.8-36-27.386v-95.739c7.689 6.664 19.9 13.433 38.906 19.54 5.367 1.724 11.042 3.319 16.981 4.778a5.935 5.935 0 1 0 2.826-11.528c-36.753-8.948-58.807-22.489-58.807-35.156 0-21.41 63.169-45.321 153.678-45.321s153.584 24.08 153.584 45.489c0 20.467-57.642 43.351-141.786 45.351h-.382v-.225c-4 .09-7.618.026-11.6.026a464.445 464.445 0 0 1 -55.5-3.201 5.928 5.928 0 0 0 -6.648 5.887v.113a5.94 5.94 0 0 0 5.216 5.894 466.728 466.728 0 0 0 57.113 3.425l324.419.081zm-171-139.154v23.154h-49.5c3.706-1 7.217-2.276 10.68-3.388 19.007-6.107 30.82-13.101 38.82-19.766z"/></g></svg>