<svg width="32" height="32" data-name="Layer 1" xmlns="http://www.w3.org/2000/svg" viewBox="0 0 30 36"><defs><style>.cls-1{fill:#0c0058;}.cls-1,.cls-2{fill-rule:evenodd;}.cls-2{fill:#ff6e6e;}</style></defs><g id="Vivid.JS"><g id="Vivid-Icons"><g id="Icons"><g id="refresh"><g id="Shape"><path class="cls-1" d="M9.52,17.94A8.57,8.57,0,0,0,18,26.61v2.33l-.94,4.29A15.19,15.19,0,0,1,3,17.94,15,15,0,0,1,15,3h2l.05,6.32A8.61,8.61,0,0,0,9.52,17.94Z" transform="translate(-3)"/><path class="cls-2" d="M18,33.28c-.32,0-.63,0-.94-.05L18,28.94V26.61A8.67,8.67,0,0,0,18,9.27c-.32,0-.63,0-.95.05L17,7s-.66-4.4,1-4.4A15.17,15.17,0,0,1,33,17.94,15.18,15.18,0,0,1,18,33.28Z" transform="translate(-3)"/><polygon class="cls-2" points="17.01 36 17.01 22 10 29 17.01 36"/><polygon class="cls-1" points="12.99 0 12.99 13 19.02 6.51 12.99 0"/></g></g></g></g></g></svg>