<svg width="32" height="32" data-name="Layer 1" xmlns="http://www.w3.org/2000/svg" viewBox="0 0 32 20.24"><defs><style>.cls-1{fill:#b4e66e;}.cls-2{fill:#ffdc64;}.cls-3{fill:#ffc850;}.cls-4{fill:#b4e6ff;}.cls-5{fill:#f1f4fb;}.cls-6{fill:#e1a546;}.cls-7{fill:#5b5d6e;}.cls-8{fill:#9bd6ff;}.cls-9{fill:#a0d755;}</style></defs><path class="cls-1" d="M22.41,6.38H3.17a.53.53,0,0,0-.53.53V18.14h1.6a1.07,1.07,0,0,1,0,2.14H2.64v1.6a.53.53,0,0,0,.53.53H23V6.91A.54.54,0,0,0,22.41,6.38Z" transform="translate(0 -5.88)"/><path class="cls-2" d="M29.36,14.93H23v7.48H31.5V17.07A2.14,2.14,0,0,0,29.36,14.93Z" transform="translate(0 -5.88)"/><path class="cls-3" d="M23,16.53h5.79a1.07,1.07,0,0,1,1.07,1.07v4.81H23Z" transform="translate(0 -5.88)"/><path class="cls-2" d="M27.22,8.52H23v2.14h5.88v-.54A1.61,1.61,0,0,0,27.22,8.52Z" transform="translate(0 -5.88)"/><polygon class="cls-4" points="29.36 9.05 28.29 4.78 22.95 4.78 22.95 9.05 29.36 9.05"/><path class="cls-5" d="M29.36,17.07H31.5v2.14H30.43a1.07,1.07,0,0,1-1.07-1.07V17.07Z" transform="translate(0 -5.88)"/><path class="cls-6" d="M26.69,18.67A4.27,4.27,0,0,0,23,20.88v1.53h8A4.28,4.28,0,0,0,26.69,18.67Z" transform="translate(0 -5.88)"/><path class="cls-3" d="M29.81,20v2.38h1.12A4.3,4.3,0,0,0,29.81,20Z" transform="translate(0 -5.88)"/><circle class="cls-7" cx="26.69" cy="17.07" r="2.67"/><path class="cls-8" d="M25.09,12.26h3.6l-.4-1.6H23v4.27h1.6V12.79A.54.54,0,0,1,25.09,12.26Z" transform="translate(0 -5.88)"/><path class="cls-9" d="M9.05,18.67a4.25,4.25,0,0,0-3.33,1.61H2.64v1.6a.53.53,0,0,0,.53.53H23V20.28H12.39A4.28,4.28,0,0,0,9.05,18.67Z" transform="translate(0 -5.88)"/><circle class="cls-7" cx="9.05" cy="17.07" r="2.67"/><path d="M29.76,14.46l-.83-3.31a.5.5,0,0,0,.4-.49v-.54A2.11,2.11,0,0,0,27.22,8H23.45V6.91a1,1,0,0,0-1-1H3.17a1,1,0,0,0-1,1V16a.5.5,0,0,0,1,0V6.91a0,0,0,0,1,0,0H22.41a0,0,0,0,1,0,0V16a.5.5,0,0,0,.5.5.5.5,0,0,0,.5-.5v-.57h5.91a1.64,1.64,0,0,1,1.56,1.14H29.36a.5.5,0,0,0-.5.5v1.07a1.57,1.57,0,0,0,1.57,1.57H31v2.2H29.69a3.17,3.17,0,0,0-6,0h-.24V18.14a.5.5,0,0,0-.5-.5.5.5,0,0,0-.5.5v3.77H12.05a3.17,3.17,0,0,0-6,0H3.17a0,0,0,0,1,0,0v-1.1H5.31a.51.51,0,0,0,0-1H.5a.51.51,0,0,0,0,1H2.14v1.1a1,1,0,0,0,1,1H5.88v0a3.18,3.18,0,0,0,6.35,0v0h11.3v0a3.17,3.17,0,1,0,6.34,0v0H31.5a.5.5,0,0,0,.5-.5V17.07A2.64,2.64,0,0,0,29.76,14.46Zm-6.31-3.3H27.9l.82,3.27H23.45V11.16ZM27.22,9a1.11,1.11,0,0,1,1.11,1.1v0H23.45V9ZM9.05,25.12A2.17,2.17,0,1,1,11.22,23,2.17,2.17,0,0,1,9.05,25.12Zm17.64,0A2.17,2.17,0,1,1,28.86,23,2.17,2.17,0,0,1,26.69,25.12Zm3.74-6.41a.58.58,0,0,1-.57-.57v-.57H31v1.14Z" transform="translate(0 -5.88)"/><path d="M9.05,21.91a1,1,0,1,0,1,1A1,1,0,0,0,9.05,21.91Z" transform="translate(0 -5.88)"/><path d="M26.69,21.91a1,1,0,1,0,0,2.07,1,1,0,0,0,0-2.07Z" transform="translate(0 -5.88)"/><path d="M12.83,20.28a.5.5,0,0,0,.5.5h7.48a.51.51,0,0,0,0-1H13.33A.5.5,0,0,0,12.83,20.28Z" transform="translate(0 -5.88)"/><path d="M1.57,18.64H8a.5.5,0,0,0,.5-.5.5.5,0,0,0-.5-.5H1.57a.5.5,0,0,0-.5.5A.5.5,0,0,0,1.57,18.64Z" transform="translate(0 -5.88)"/><path d="M16.71,10.84l-4.45,4.45L9.94,13a.5.5,0,0,0-.71.71l2.67,2.67a.51.51,0,0,0,.36.15.47.47,0,0,0,.35-.15l4.81-4.81a.48.48,0,0,0,0-.7A.5.5,0,0,0,16.71,10.84Z" transform="translate(0 -5.88)"/></svg>