<?xml version="1.0" encoding="utf-8"?>
<!-- Generator: Adobe Illustrator 26.0.1, SVG Export Plug-In . SVG Version: 6.00 Build 0)  -->
<svg version="1.1" id="Layer_1" xmlns="http://www.w3.org/2000/svg" xmlns:xlink="http://www.w3.org/1999/xlink" x="0px" y="0px"
	 viewBox="0 0 500 336" style="enable-background:new 0 0 500 336;" xml:space="preserve">
<style type="text/css">
	.st0{display:none;}
	.st1{display:inline;}
	.st2{fill:#407BFF;}
	.st3{opacity:0.9;fill:#FFFFFF;enable-background:new    ;}
	.st4{fill:#C6C6C6;}
	.st5{fill:#EBEBEB;}
	.st6{fill:#F8F8F8;}
	.st7{fill:#FAFAFA;}
	.st8{fill:#F0F0F0;}
	.st9{fill:#E6E6E6;}
	.st10{fill:#F5F5F5;}
	.st11{fill:#E0E0E0;}
	.st12{fill:#FFC3BD;}
	.st13{opacity:0.1;enable-background:new    ;}
	.st14{fill:#5441B5;}
	.st15{fill:#263238;}
	.st16{opacity:0.3;enable-background:new    ;}
	.st17{opacity:0.2;enable-background:new    ;}
	.st18{fill:#ED893E;}
	.st19{opacity:0.5;enable-background:new    ;}
	.st20{fill:#FF8B7B;}
	.st21{fill:#FF5652;}
	.st22{opacity:0.4;enable-background:new    ;}
	.st23{opacity:0.3;fill:#5441B5;enable-background:new    ;}
	.st24{opacity:0.6;fill:#FFFFFF;enable-background:new    ;}
	.st25{fill:#FFFFFF;}
	.st26{opacity:0.3;}
</style>
<g id="Background_Simple" class="st0">
	<g class="st1">
		<path class="st2" d="M146.8,158.7C171.9,125.6,159.1,48,206.1,35c42.8-11.9,53.9,54,83.8,61.7c37.2,9.5,110.4-61.9,152.3-16.2
			c40.6,44.3-103,160.1-157.4,182.2c-86.3,35.1-241,22.5-235.9-41.8C52.3,177.6,125.2,187.2,146.8,158.7z"/>
		<path class="st3" d="M146.8,158.7C171.9,125.6,159.1,48,206.1,35c42.8-11.9,53.9,54,83.8,61.7c37.2,9.5,110.4-61.9,152.3-16.2
			c40.6,44.3-103,160.1-157.4,182.2c-86.3,35.1-241,22.5-235.9-41.8C52.3,177.6,125.2,187.2,146.8,158.7z"/>
	</g>
</g>
<polygon class="st4" points="0,294.6 183.6,294.6 183.6,294.8 0,294.8 "/>
<polygon class="st4" points="301.7,294.6 478.8,294.6 478.8,294.8 301.7,294.8 "/>
<rect x="396.6" y="301.4" class="st5" width="19.2" height="0.2"/>
<path class="st6" d="M377.8,126.8h58.3c8.1,0,13.5-8.3,10.2-15.8c-3.9-8.9-12.1-13.7-19.5-7c-11.2,10-10.7-9.4-24.1-6.7
	c-11.7,2.4-10.1,13.9-17.3,16.4C378.3,116,368.4,124.1,377.8,126.8z"/>
<path class="st7" d="M285.5,21.7H328c5.9,0,9.8-6,7.5-11.4c-2.8-6.5-8.8-10-14.3-5.1c-8.2,7.3-7.8-6.9-17.6-4.9
	c-8.5,1.7-7.4,10.2-12.6,11.9C285.8,13.8,278.6,19.8,285.5,21.7z"/>
<g>
	<g>
		<g>
			<path class="st8" d="M369.7,294.7h-7V70.1c0-12.5,10.2-22.8,22.7-22.8h6.2v7h-6.2c-8.7,0-15.7,7.1-15.7,15.8V294.7z"/>
		</g>
		<g>
			<rect x="391.6" y="11.2" class="st5" width="26.5" height="75.2"/>
			<path class="st9" d="M418.1,86.5h-26.5v0.1c0,2.9,2.3,5.2,5.2,5.2H413c2.9,0,5.2-2.3,5.2-5.2L418.1,86.5L418.1,86.5z"/>
			<g>
				<ellipse class="st8" cx="404.9" cy="26.8" rx="8.2" ry="8.2"/>
				<ellipse class="st7" cx="404.9" cy="24.8" rx="8.2" ry="8.2"/>
			</g>
			<g>
				<ellipse class="st8" cx="404.9" cy="49.4" rx="8.2" ry="8.2"/>
				<ellipse class="st7" cx="404.9" cy="47.4" rx="8.2" ry="8.2"/>
			</g>
			<g>
				<ellipse class="st8" cx="404.9" cy="71.9" rx="8.2" ry="8.2"/>
				<ellipse class="st7" cx="404.9" cy="69.9" rx="8.2" ry="8.2"/>
			</g>
		</g>
	</g>
	<g>
		<g>
			<rect x="390.7" y="229" class="st5" width="46.2" height="20.3"/>
			<rect x="387.5" y="226.2" class="st10" width="6.4" height="25.8"/>
			<rect x="433.7" y="226.2" class="st10" width="6.4" height="25.8"/>
			<path class="st10" d="M390.7,242.4h-4.4c-1.1,0-2.1-0.9-2.1-2.1V238c0-1.1,0.9-2.1,2.1-2.1h4.4V242.4z"/>
			<path class="st10" d="M436.9,235.9h4.4c1.1,0,2.1,0.9,2.1,2.1v2.3c0,1.1-0.9,2.1-2.1,2.1h-4.4V235.9z"/>
			<g>
				<path class="st10" d="M426.2,286.1h-24.8v-69.9c0-6.9,5.6-12.4,12.4-12.4l0,0c6.9,0,12.4,5.6,12.4,12.4V286.1z"/>
				<path class="st5" d="M430.7,294.7h-33.8v-6.5c0-3.4,2.8-6.1,6.1-6.1h21.5c3.4,0,6.1,2.8,6.1,6.1L430.7,294.7L430.7,294.7z"/>
			</g>
			<ellipse class="st7" cx="413.8" cy="239.1" rx="10.6" ry="10.6"/>
			<path class="st5" d="M416.3,239.1c0,1.4-1.1,2.5-2.5,2.5s-2.5-1.1-2.5-2.5c0-1.4,1.1-2.5,2.5-2.5
				C415.2,236.6,416.3,237.7,416.3,239.1z"/>
			<path class="st8" d="M396.9,219.7L396.9,219.7c0-1.8,1.4-3.2,3.2-3.2h27.3c1.8,0,3.2,1.4,3.2,3.2l0,0c0,1.8-1.4,3.2-3.2,3.2
				h-27.3C398.4,222.9,396.9,221.5,396.9,219.7z"/>
		</g>
		<g>
			<path class="st5" d="M408.4,255.5L408.4,255.5c1.8,0,3.2,1.4,3.2,3.2v16.7c0,1.8-1.4,3.2-3.2,3.2l0,0c-1.8,0-3.2-1.4-3.2-3.2
				v-16.7C405.2,256.9,406.6,255.5,408.4,255.5z"/>
			<path class="st5" d="M419.2,255.5L419.2,255.5c1.8,0,3.2,1.4,3.2,3.2v16.7c0,1.8-1.4,3.2-3.2,3.2l0,0c-1.8,0-3.2-1.4-3.2-3.2
				v-16.7C416,256.9,417.4,255.5,419.2,255.5z"/>
		</g>
	</g>
	<g>
		<path class="st8" d="M72,294.9h-2.5c-0.7,0-1.3-0.6-1.3-1.3l2.7-60.6h6.3l-4,60.8C73.3,294.4,72.7,294.9,72,294.9z"/>
		<path class="st8" d="M82.4,294.9h-2.5c-0.7,0-1.3-0.6-1.3-1.3l2.7-60.6h6.3l-4,60.8C83.6,294.4,83,294.9,82.4,294.9z"/>
		<path class="st8" d="M111.1,294.9h2.5c0.7,0,1.3-0.6,1.3-1.3l-2.7-60.6h-6.3l4,60.8C109.9,294.4,110.4,294.9,111.1,294.9z"/>
		<path class="st8" d="M121.3,294.9h2.5c0.7,0,1.3-0.6,1.3-1.3l-2.7-60.6H116l4,60.8C120,294.4,120.6,294.9,121.3,294.9z"/>
		<rect x="82.5" y="197.2" class="st8" width="5.4" height="28.4"/>
		<rect x="106.2" y="197.2" class="st8" width="5.4" height="28.4"/>
		<path class="st10" d="M129.8,231.7c0,6.3-14.5,5.7-32.3,5.7s-32.3,0.6-32.3-5.7s14.5-11.3,32.3-11.3S129.8,225.4,129.8,231.7z"/>
		<path class="st10" d="M112.8,200.4H82c-4.9,0-8.9-3.7-9.3-8.6l-1-12.3c-0.4-5.4,3.9-10,9.3-10h32.7c5.4,0,9.7,4.6,9.3,10l-1,12.3
			C121.7,196.5,117.7,200.4,112.8,200.4z"/>
	</g>
	<g>
		<rect x="68.5" y="83.6" class="st8" width="36.3" height="28.7"/>
		<rect x="66.6" y="83.6" class="st11" width="2" height="28.7"/>
		<rect x="72.2" y="86.5" class="st7" width="28.9" height="22.9"/>
		<rect x="74.6" y="88.4" class="st5" width="24.2" height="19.1"/>
	</g>
	<g>
		<g>
			<rect x="112.4" y="36.9" class="st5" width="40" height="50.9"/>
			<rect x="110.4" y="36.9" class="st11" width="1.9" height="50.9"/>
			<rect x="116.4" y="42.1" class="st10" width="31.8" height="40.5"/>
			<rect x="119" y="45.4" class="st7" width="26.6" height="33.8"/>
		</g>
		<path class="st5" d="M127.1,57.4c0,0,4.7,6.6,7.1,6.5c2.2-0.1,6-6.5,6-6.5s-4.7-6.6-7.1-6.5C130.8,51,127.1,57.4,127.1,57.4z"/>
		<path class="st8" d="M139.4,72.2c1.4-2.7-5.9-8.3-8.9-8.2c-2.8,0.1-8.5,5.6-7.5,8.2C124.6,75.9,137.5,75.8,139.4,72.2z"/>
	</g>
	<g>
		<g>
			<ellipse class="st11" cx="79.6" cy="43.1" rx="18" ry="25.3"/>
			<ellipse class="st5" cx="81.8" cy="43.1" rx="18.1" ry="25.3"/>
			<ellipse class="st9" cx="81.8" cy="43.1" rx="15.4" ry="21.5"/>
			<ellipse class="st7" cx="81.8" cy="43.1" rx="13.7" ry="19.3"/>
		</g>
		<path class="st5" d="M86.1,53.7c0,0,4.7-4.2,4.2-10.7c0,0-5.7-0.7-5.5,8.8c0,0-6.4-6.6-4.5-10.8c2.9-6.6,2.9-6.6,0.9-10.7
			c0,0-5.6,2.2-3,9.8c0,0,0.1,3.7,0.9,5.8c0,0-5.6-5.4-7.4-1.9c0,0,3,5.7,7.4,3.3C79.1,47.5,84,56.2,86.1,53.7z"/>
	</g>
</g>
<rect x="416.8" y="310.7" class="st5" width="33.1" height="0.2"/>
<rect x="322.5" y="313.4" class="st5" width="8.7" height="0.2"/>
<rect x="52.5" y="303.1" class="st5" width="43.2" height="0.2"/>
<rect x="104.6" y="303.1" class="st5" width="6.3" height="0.2"/>
<rect x="131.5" y="307.3" class="st5" width="93.7" height="0.2"/>
<g id="Shadow">
	<ellipse id="_x3C_Path_x3E__1_" class="st10" cx="245.2" cy="324.7" rx="193.9" ry="11.3"/>
</g>
<g id="Character_2">
	<g>
		<path class="st12" d="M321.8,107.1c-2.7-2.8-4.6-8-5.5-11.3l-4.2,10.1c1.4,1.6,2,4,1.6,5.8c0,0.1-0.1,1.8-2.9,3.5
			c0,0,0.5,10.3,6.6,8.8c6.1-1.5,9.4-13.6,9.4-13.6l0.4-3.5C327.1,107,324.3,109.4,321.8,107.1z"/>
		<path class="st13" d="M313.1,103.4l-1,2.5c0.8,1,1.4,2.1,1.6,3.3c2.8-3.3,3.1-8.6,3.1-8.6L313.1,103.4z"/>
		<path class="st12" d="M268.7,153c0,0,16.5,0.7,23.8-1.3c7.3-2,13.5-14.8,13.5-14.8l-8.4-4.6l-8.3,12.4l-20.7,3.3l-5.9-4.2
			c0,0-12-2.6-12-1s6.2,2.8,6.2,2.8s0.4,7.4,2.9,7.6C262.4,153.3,268.7,153,268.7,153z"/>
		<path class="st14" d="M309.1,117.6c0,0-7.1,1-11.8,9.7c-4.7,8.7-0.7,9,3.3,11.4c4,2.4,5.9,3,7.8-2.3
			C310.1,131,313.7,117.1,309.1,117.6z"/>
		<path class="st13" d="M309,133.9l-2.6-5.4l-4.5-0.3c0,0-0.4,6.2,0.2,11.5c2.9,1.5,4.6,1.2,6.1-3.3
			C308.5,135.7,308.8,134.8,309,133.9z"/>
		<g>
			<path class="st15" d="M294.8,83c0,0-5.2,1.8-1.8,7.1c3.4,5.3-3.5,8.9,8.2,10.3c11.6,1.5,0.4-19.7,0.4-19.7L294.8,83z"/>
			<path class="st16" d="M294.8,83c0,0-5.2,1.8-1.8,7.1c3.4,5.3-3.5,8.9,8.2,10.3c11.6,1.5,0.4-19.7,0.4-19.7L294.8,83z"/>
		</g>
		<path class="st14" d="M339.6,116.3c-1.7-11.3-8.3-11.1-14.8-8.6c0.5,4.3,0.5,9.7-5.7,13.1c-5.6,3-7.7-2-7.8-6.2
			c-5.8,3.3-10.7,7.6-9.1,16.1c0.9,4.8,5.1,10.1,9.5,16.9c5.2,8,10.5,17.2,10.5,17.2l29.7-15.1C351.9,149.4,341.5,128.6,339.6,116.3
			z"/>
		<path class="st17" d="M339.6,116.3c-0.3-1.7-0.6-3.1-1.1-4.3l-4.5-0.8l-2.3,3.7c0,0,5,8.7,11.5,14.2
			C341.6,124.7,340.2,120.1,339.6,116.3z"/>
		<path class="st12" d="M347.6,112.7c0,0,10.2,7,13.3,9.6c4.6,4,17.1,17.6,17.1,17.6l7.6,4.2v4.8l-3.6,2.5c-1.1,0.8-2.6,0.5-3.4-0.6
			l-4.6-6.9c0,0-11.4-10.5-15.7-13.4c-3.6-2.5-15.1-8.7-15.1-8.7L347.6,112.7z"/>
		<path class="st14" d="M328.8,106.6c0,0,6.6-3,12.1,0c5.5,3,8.1,4.6,7.5,8.1c-0.5,3.5-2.6,10.9-6.3,9.7
			C338.5,123.3,326.7,111.7,328.8,106.6z"/>
		<path class="st12" d="M317.8,87.3c0.8,7.7,1.2,10.9-2,15.5c-4.8,6.8-14.4,6-17.4-1.2c-2.7-6.6-3.5-18.1,3.4-22.3
			c4.9-3,11.4-1.5,14.4,3.4C317.1,84.1,317.7,85.7,317.8,87.3z"/>
		<g>
			<path class="st18" d="M301.7,93.2c-0.3,1.5-0.8,2.9-1.6,4.3c0.7,0.4,1.5,0.4,2.3,0.1L301.7,93.2z"/>
			<path class="st15" d="M306.8,88.1l0.1-0.1c0.1-0.1,0-0.3-0.1-0.4l0,0c-1-0.6-2.2-0.7-3.3-0.2c-0.1,0.1-0.2,0.3-0.1,0.4
				c0.1,0.1,0.3,0.2,0.4,0.1c0.9-0.4,1.9-0.3,2.7,0.2C306.6,88.1,306.7,88.1,306.8,88.1z"/>
			<path class="st15" d="M295.4,90l0.1-0.1c0.6-0.7,1.5-1.2,2.5-1.1c0.2,0,0.3-0.1,0.3-0.3l0,0c0-0.2-0.1-0.3-0.3-0.3
				c-1.2-0.1-2.3,0.4-3,1.3c-0.1,0.1-0.1,0.3,0,0.4C295.1,90,295.2,90,295.4,90L295.4,90z"/>
			<g>
				<path class="st15" d="M305.9,91.5c0.1,0.6-0.1,1.2-0.6,1.2c-0.4,0.1-0.8-0.4-0.9-1c-0.1-0.6,0.1-1.2,0.5-1.2
					C305.4,90.4,305.8,90.8,305.9,91.5z"/>
				<path class="st15" d="M298.9,92.6c0.1,0.6-0.1,1.2-0.5,1.2s-0.8-0.4-0.9-1c-0.1-0.6,0.1-1.2,0.5-1.2S298.8,92,298.9,92.6z"/>
				<path class="st15" d="M298.2,91.6l-1.6-0.2C296.6,91.4,297.6,92.4,298.2,91.6z"/>
				<path class="st15" d="M305.2,90.5l-1.6-0.2C303.6,90.3,304.6,91.3,305.2,90.5z"/>
			</g>
			<path class="st15" d="M307.4,100.4c0.4-0.2,0.7-0.4,1.1-0.7c0.1-0.1,0.1-0.2,0-0.3l0,0c-0.1-0.1-0.2-0.1-0.3,0
				c-1.5,1.2-3.5,1.5-5.3,1c-0.1,0-0.2,0-0.3,0.1c0,0.1,0,0.2,0.1,0.3C304.3,101.3,305.9,101.1,307.4,100.4z"/>
		</g>
		<path class="st15" d="M301.3,83.1c-3,0.4-11,2.6-9.7-4.8s15.6-11.2,22.2-6.4c6.6,4.8,11.7,4.5,17,0.5s7.8-2.4,14.6,1.3
			c0,0-3.6,6.3-1.9,10.1c0,0-4-4-11.5,0.3c0,0,8.6-2.3,11.9,3.7c0,0-0.9,6.6,2.3,10.5c3.2,3.9-0.1,8.6-12.3,3.8
			c-12.2-4.8-13.5-0.4-16.3-2.5s-4.9-7.7-5.4-11.9C311.9,84.8,310.6,82,301.3,83.1z"/>
		<path class="st12" d="M318.8,92.6c-0.2,1.5-1,2.8-2.1,3.7c-1.6,1.2-3.1,0-3.2-1.9c-0.1-1.7,0.5-4.3,2.4-4.8c1.4-0.3,2.7,0.6,3,2
			C318.9,91.9,318.9,92.3,318.8,92.6z"/>
		<path class="st12" d="M359,305.2c0.3,6.4,0.5,11.5,0.5,11.5l-7.1,0.8c0,0-0.7-4.3-1.7-10.9L359,305.2z"/>
		<g>
			<path class="st14" d="M349.2,315.9c-0.9,0.1-1.8,0-2.1-0.4c-0.2-0.2-0.2-0.5,0-0.7c0.1-0.2,0.3-0.4,0.5-0.4
				c1.2-0.4,3.7,0.9,3.8,0.9c0.1,0,0.1,0.1,0.1,0.2c0,0.1-0.1,0.1-0.1,0.1C350.7,315.8,350,315.9,349.2,315.9z M348,314.6
				c-0.1,0-0.2,0-0.3,0.1c-0.1,0-0.3,0.1-0.3,0.3c-0.1,0.2-0.1,0.3,0,0.4c0.4,0.4,2.1,0.3,3.5,0.1C349.9,315,349,314.7,348,314.6z"
				/>
			<path class="st14" d="M351.4,315.6C351.3,315.6,351.3,315.6,351.4,315.6c-0.9-0.3-2.7-1.8-2.6-2.6c0-0.2,0.1-0.4,0.6-0.5
				c0.3-0.1,0.7,0,1,0.2c1,0.7,1.3,2.6,1.3,2.7s0,0.1-0.1,0.2C351.4,315.6,351.4,315.6,351.4,315.6z M349.4,312.8L349.4,312.8
				c-0.4,0-0.4,0.2-0.4,0.2c0,0.5,1.2,1.6,2.1,2.1c-0.1-0.8-0.5-1.5-1.1-2.1C349.9,312.9,349.7,312.8,349.4,312.8L349.4,312.8z"/>
			<path class="st15" d="M352,314.6l7.7-0.5c0.3,0,0.6,0.2,0.6,0.4l1.8,6.2c0.2,0.5-0.1,1.1-0.7,1.3c-0.1,0-0.1,0-0.2,0
				c-2.8,0.1-5.3,0.1-8.8,0.4c-4.1,0.3-3,0.7-7.8,1.1c-2.9,0.2-3.6-3-2.4-3.3c5.6-1.1,6.1-2.8,8.1-5
				C350.9,314.8,351.4,314.6,352,314.6z"/>
		</g>
		<path class="st15" d="M354.7,153.9l-1.4-4.8c-0.2-0.6-0.8-0.9-1.4-0.6l-30.2,15.3c-0.5,0.3-0.7,0.9-0.4,1.4l3.1,4.5
			c0,0,7.5,51.4,10.6,68.4c3.2,17.4,14.6,69.4,14.6,69.4c0.1,0.4,0.4,0.6,0.8,0.6l8.8-1.4c0.3-0.1,0.6-0.3,0.6-0.7
			c0.1-4.4,0-32.5-2.8-52.3c-1-7.1-3.4-12.7-4.2-16.7c-0.9-4.3,0.5-7.2,1-17.6C354.9,199.9,356.2,169.1,354.7,153.9z"/>
		<path class="st19" d="M353.9,219.3c0.3-6.5,0.7-14.3,1-22.4l-8.8-14.8l-3.9-8.7l-3.7,5c0,0,6.5,27.6,15.1,44.9
			C353.7,222.1,353.8,220.8,353.9,219.3z"/>
		<path class="st12" d="M420.5,280.6c3.7,5.2,6.1,8.7,6.1,8.7l-5.5,4.5c0,0-2.9-3.3-7.4-8.3L420.5,280.6z"/>
		<g>
			<path class="st14" d="M417.2,294.3c-0.7,0.5-1.5,0.9-2,0.8c-0.3-0.1-0.4-0.3-0.4-0.6c0-0.2,0-0.5,0.2-0.6c0.8-1,3.6-1.3,3.7-1.3
				s0.1,0,0.2,0.1c0,0.1,0,0.1,0,0.2C418.3,293.4,417.7,293.8,417.2,294.3z M415.4,293.8c-0.1,0.1-0.2,0.1-0.2,0.2
				c-0.1,0.1-0.1,0.2-0.1,0.4s0.1,0.3,0.2,0.3c0.5,0.2,2-0.9,3-1.8C417.2,293.1,416.3,293.4,415.4,293.8z"/>
			<path class="st14" d="M418.8,292.8C418.8,292.9,418.7,292.9,418.8,292.8c-1,0.2-3.3,0-3.6-0.7c-0.1-0.2-0.1-0.4,0.2-0.8
				c0.3-0.2,0.6-0.3,0.9-0.3c1.2,0.1,2.5,1.5,2.5,1.6C418.9,292.6,418.9,292.7,418.8,292.8L418.8,292.8z M415.7,291.6L415.7,291.6
				c-0.3,0.2-0.3,0.4-0.2,0.4c0.3,0.4,1.9,0.7,2.9,0.6c-0.5-0.6-1.3-1-2.1-1.2C416,291.4,415.8,291.4,415.7,291.6L415.7,291.6z"/>
			<path class="st15" d="M418.8,291.6l6.2-4.6c0.2-0.2,0.6-0.2,0.8,0l4.9,4.2c0.4,0.4,0.5,1,0.1,1.5c0,0.1-0.1,0.1-0.2,0.2
				c-2.3,1.6-4.4,3-7.2,5c-3.3,2.4-2.2,2.2-6,5.1c-2.3,1.8-4.7-0.6-3.8-1.5c4.1-3.9,3.6-5.6,4.1-8.6
				C417.9,292.5,418.3,291.9,418.8,291.6z"/>
		</g>
		<path class="st15" d="M332.5,166.2c0,0,23.2,53.6,34.1,69.5c9.7,14.1,46.7,50.5,46.7,50.5c0.6,0.6,1.5,0.7,2.2,0.1l5.1-4.4
			c0.6-0.5,0.7-1.3,0.3-2c-3.1-5.1-16.4-26.6-28-40.4c-4.6-5.5-9.1-9.6-11.3-12.6c-2.9-4-2.2-7.3-4.5-18.6
			c-4.3-20.9-12.6-51.6-25.2-56.5L332.5,166.2z"/>
	</g>
</g>
<g>
	<path class="st15" d="M166.9,103.8c0,0-5.8-0.8-5.1,2.2C162.3,108.3,164.2,103.9,166.9,103.8z"/>
	<g>
		<path class="st20" d="M161.8,110.7c0,0,4.8,0,5.5-8.8c0,0,4.6-1.6,7.1,1.2s-3.4,8.3-0.1,11.2C174.4,114.4,171.1,116.2,161.8,110.7
			z"/>
		<path class="st15" d="M179.5,79.9c0,0,6.2-1.3,7.8,3.2s-9.1,2.5-9.1,2.5L179.5,79.9z"/>
		<path class="st16" d="M179.5,79.9c0,0,6.2-1.3,7.8,3.2s-9.1,2.5-9.1,2.5L179.5,79.9z"/>
		<path class="st15" d="M184.5,91.2c0.1-0.6,0.5-1,0.9-0.9s0.6,0.6,0.5,1.2c-0.1,0.6-0.5,1-0.9,0.9
			C184.7,92.3,184.4,91.7,184.5,91.2z"/>
		<path class="st21" d="M184.8,92.3l2.7,4.4c0,0-1.4,1-3.4,0.3L184.8,92.3z"/>
		<path class="st20" d="M164.5,88.4c-0.3,7.4-0.6,10.5,2.7,14.7c5.3,4.5,14.2,5.1,16.7-2.1c2.3-6.4,2.5-17.6-4.4-21.3
			c-4.9-2.7-11.1-0.8-13.7,4.1C164.9,85.3,164.5,86.8,164.5,88.4z"/>
		<path class="st15" d="M183.6,89.3c0.1,0,0.2,0,0.3,0c0.7-0.5,1.6-0.7,2.4-0.4c0.2,0.1,0.4,0,0.4-0.2c0.1-0.2,0-0.4-0.2-0.4
			c-1.1-0.3-2.2-0.1-3.1,0.5c-0.2,0.1-0.2,0.3-0.1,0.5l0,0C183.5,89.3,183.5,89.3,183.6,89.3z"/>
		<g>
			<path class="st15" d="M158.4,112.3c0,0,2.1-5.7,10.6-2.1c8.5,3.6,9.3,8.6,9.3,8.6L158.4,112.3z"/>
			<path class="st22" d="M158.4,112.3c0,0,2.1-5.7,10.6-2.1c8.5,3.6,9.3,8.6,9.3,8.6L158.4,112.3z"/>
		</g>
		<path class="st20" d="M162.3,220.4c0,0-1.2,10.4-1.8,13.8c-0.5,3-17,82-17,82L136,315c0,0-0.8-40,4.9-66.5
			c1.2-5.4,3.6-9.9,4.4-14.1c0.7-3.3-0.4-13.5-0.4-13.5L162.3,220.4z"/>
		<path class="st20" d="M131,218.7c0,0-3.5,9.5-5.1,12.4c-1.8,3.2-8.5,11.9-8.5,11.9l-35.8,50.4l-6.8-4.3c0,0,10.3-27.8,25.9-50.4
			c3.7-5.4,9.1-9.5,11.9-14.8c1.7-3.1,3.1-13.6,3.1-13.6L131,218.7z"/>
		<path class="st20" d="M140.6,122.2c0,0-8.6,10.9-7.8,15.6c0.7,4.6,14.2,10.2,14.2,10.2l3.4-4.9l-8.8-6.4l8.4-9.6L140.6,122.2z"/>
		<path class="st15" d="M154.8,111.3c-1.1-0.5-5.8-2.4-16.1,10.9c0,0,3.7,4.6,11.7,7.4C150.4,129.6,159.4,113.5,154.8,111.3z"/>
		<path class="st22" d="M150.4,129.6c0,0,1.5-2.7,2.9-6c-0.2-5.7-0.9-12.8-2.9-10.2c-2.7,3.4-6.3,10.2-7.5,12.5
			C144.7,127.1,147.2,128.5,150.4,129.6z"/>
		<path class="st14" d="M142.4,155.7c0,0,13.8,8.1,31.9,9.2l-11.6,64.6c0,0-33.3-0.1-50.8-16.8C111.9,212.8,118.9,177.6,142.4,155.7
			z"/>
		<path class="st15" d="M140.9,155.8c0,0,13.4,9.8,34.6,9.2c0,0,12.2-33.9,4.6-45.3c-4.7-7.1-22.9-10.3-27.8-8.2
			C146.4,113.9,149.8,135.1,140.9,155.8z"/>
		<path class="st13" d="M144.1,190.6l-14.8,32.6c6.1,2.4,12.4,3.6,16,4.4C145.3,227.6,145.8,197.2,144.1,190.6z"/>
		<path class="st22" d="M174.5,125.2l-2.4,1.7c0,0,2,8.5,8.8,18.5c1-4.8,1.7-9.8,1.7-14.3l-5.3-4.5L174.5,125.2z"/>
		<path class="st20" d="M187.9,130.1l8,11.1l20.1,1.4l3.7-3.1c0.2-0.2,0.6-0.3,0.9-0.4l10.7-0.9c0.3,0,0.6,0.2,0.6,0.6l-0.1,0.9
			c0,0.3-0.2,0.5-0.5,0.5l-5.1,0.4l-1,5.2c-0.1,0.6-0.6,1.1-1.2,1.2l-4,1c-0.3,0.1-0.5,0.1-0.8,0l-2.8-0.7c0,0-15.7,3.2-22.9,1.9
			s-14.3-13-14.3-13L187.9,130.1z"/>
		<path class="st15" d="M178.6,138.7c0,0-12.9-17.3-4.9-21.3c7.9-4,16.3,13.7,16.3,13.7S186.7,136,178.6,138.7z"/>
		<g>
			<path class="st14" d="M145.1,315.7c-0.1,0-0.1-0.1-0.2-0.2c0-0.1,0-0.2,0.1-0.2c0.1-0.1,3.1-1.6,4.4-1.2c0.3,0.1,0.5,0.2,0.6,0.5
				c0.2,0.3,0.2,0.6,0,0.9c-0.4,0.4-1.4,0.6-2.5,0.5C146.8,316,146,315.9,145.1,315.7z M145.8,315.5c1.5,0.2,3.6,0.3,4-0.2
				c0.1-0.1,0.1-0.2,0-0.4c-0.1-0.1-0.2-0.3-0.4-0.3c-0.1,0-0.2-0.1-0.4-0.1C147.9,314.6,146.8,315,145.8,315.5z"/>
			<path class="st14" d="M145,315.7c-0.1,0-0.1-0.1-0.1-0.2c0-0.1,0.3-2.3,1.4-3.2c0.3-0.2,0.7-0.4,1.1-0.3c0.5,0.1,0.7,0.4,0.7,0.6
				c0.1,0.9-1.9,2.7-2.9,3.1H145C145.1,315.8,145.1,315.7,145,315.7z M147.3,312.5c-0.2,0-0.5,0.1-0.7,0.2c-0.6,0.7-1.1,1.6-1.2,2.5
				c1-0.6,2.4-1.9,2.4-2.5c0-0.1,0-0.2-0.4-0.2H147.3L147.3,312.5z"/>
			<path class="st15" d="M144.3,314.6l-9-0.3c-0.3,0-0.6,0.2-0.7,0.5l-1.9,7.3c-0.2,0.6,0.2,1.3,0.9,1.5c0.1,0,0.2,0,0.3,0
				c3.3,0.1,6.2,0,10.2,0.2c4.8,0.2,3.6,0.7,9.2,1c3.4,0.2,4.2-3.7,2.7-3.9c-6.6-1.1-7.2-3.1-9.6-5.5
				C145.7,314.8,145,314.5,144.3,314.6z"/>
		</g>
		<g>
			<path class="st14" d="M82.7,294.1c-0.1-0.1-0.1-0.1-0.1-0.2c0-0.1,0.1-0.1,0.2-0.1s3.5,0,4.5,1c0.2,0.2,0.3,0.4,0.3,0.7
				c0,0.3-0.1,0.6-0.4,0.8c-0.5,0.2-1.5-0.1-2.4-0.6C84.1,295.1,83.4,294.6,82.7,294.1z M83.4,294.1c1.3,0.9,3.1,1.9,3.7,1.6
				c0.1,0,0.2-0.1,0.2-0.4c0-0.2-0.1-0.3-0.2-0.4s-0.2-0.2-0.3-0.2C85.7,294.3,84.5,294.1,83.4,294.1z"/>
			<path class="st14" d="M82.6,294c0-0.1,0-0.1,0-0.2c0.1-0.1,1.3-1.9,2.7-2.2c0.4-0.1,0.8,0,1.1,0.2c0.4,0.3,0.5,0.6,0.4,0.8
				c-0.3,0.9-2.9,1.5-4,1.4L82.6,294C82.7,294.1,82.7,294,82.6,294z M86.1,292.1c-0.2-0.1-0.5-0.2-0.7-0.1c-0.9,0.3-1.7,0.9-2.2,1.7
				c1.2,0,3-0.6,3.2-1.1c0-0.1,0.1-0.2-0.2-0.4L86.1,292.1L86.1,292.1z"/>
			<path class="st15" d="M82.5,292.6l-7.9-4.4c-0.3-0.2-0.7-0.1-0.9,0.2l-5,5.6c-0.4,0.5-0.4,1.3,0.1,1.7c0.1,0.1,0.1,0.1,0.2,0.1
				c2.9,1.5,5.5,2.8,9.1,4.7c4.2,2.3,2.9,2.2,7.7,5c2.9,1.7,5.4-1.4,4.2-2.3c-5.4-3.9-5-6-6.1-9.3C83.7,293.5,83.2,293,82.5,292.6z"
				/>
		</g>
		<path class="st15" d="M177,94.7c0,0,3-1,1.9-5.4c0,0,1.8-3,1.5-4.6c0,0,9-5.2,3.9-10.9c-5.1-5.7-14.5-1.9-18.6,5.4
			c0,0-22,7.1-6.7,20.7C173.8,113.1,177,94.7,177,94.7z"/>
		<path class="st15" d="M167.9,82.4c0,0-3.4-7.5,1.7-13.2C174.8,63.3,166.2,77,167.9,82.4z"/>
		<path class="st14" d="M177,94.7c0,0,0.1,0,0.2-0.1c0-5.6-2.2-12.4-10.5-17.1c-0.4,0.5-0.8,1.1-1.1,1.7c0,0-0.6,0.2-1.6,0.6
			c2.9,3.1,10.8,13.2,1.9,24.4C174.9,107,177,94.7,177,94.7z"/>
		<path class="st20" d="M177.4,92.1c1,1.1,1.6,2.6,1.5,4.1c-0.1,2-2.1,2.4-3.6,1.3c-1.4-1-3-3.2-2.2-5
			C173.9,90.7,176.1,90.8,177.4,92.1z"/>
		<path class="st15" d="M185.3,90.3l1.6-0.1C186.9,90.2,185.8,91.2,185.3,90.3z"/>
		<path class="st17" d="M170.4,105.2c0.4,0.9,1.5,2.6,3.6,4c0.3-0.9,0.7-1.9,0.9-2.8C173.4,106.2,171.9,105.8,170.4,105.2z"/>
	</g>
</g>
<path class="st23" d="M287.8,317.6h-94.4c-6.5,0-11.4-5.3-10.8-11.8L203.3,68c0.6-6.5,6.3-11.8,12.9-11.8h94.4
	c6.5,0,11.4,5.3,10.8,11.8l-20.7,237.8C300.1,312.3,294.3,317.6,287.8,317.6z"/>
<g>
	<path class="st14" d="M310.6,56.1h-94.4c-6.5,0-12.3,5.3-12.9,11.8l-20.7,237.8c-0.6,6.5,4.3,11.8,10.8,11.8h94.4
		c6.5,0,12.3-5.3,12.9-11.8l20.7-237.8C322,61.4,317.2,56.1,310.6,56.1z M295.4,305.8c-0.3,3.6-3.5,6.6-7.2,6.6h-94.4
		c-3.6,0-6.3-3-6-6.6L208.5,68c0.3-3.6,3.5-6.6,7.2-6.6h94.4c3.6,0,6.3,2.9,6,6.6L295.4,305.8z"/>
	<path class="st24" d="M310.6,56.1h-94.4c-6.5,0-12.3,5.3-12.9,11.8l-20.7,237.8c-0.6,6.5,4.3,11.8,10.8,11.8h94.4
		c6.5,0,12.3-5.3,12.9-11.8l20.7-237.8C322,61.4,317.2,56.1,310.6,56.1z M295.4,305.8c-0.3,3.6-3.5,6.6-7.2,6.6h-94.4
		c-3.6,0-6.3-3-6-6.6L208.5,68c0.3-3.6,3.5-6.6,7.2-6.6h94.4c3.6,0,6.3,2.9,6,6.6L295.4,305.8z"/>
</g>
<path class="st25" d="M254.8,303c-0.6,0-25.4,0-26,0c-0.8,0-1.5,0.7-1.6,1.5c-0.1,0.8,0.5,1.5,1.3,1.5c0.6,0,25.4,0,26,0
	c0.8,0,1.5-0.7,1.6-1.5C256.2,303.7,255.6,303,254.8,303z"/>
<g>
	<g>
		<path class="st13" d="M254.2,166.7h-27.5c-3.8,0-6.6-3.1-6.3-6.9l2.4-27.6c0.3-3.8,3.7-6.9,7.5-6.9h27.5c3.8,0,6.6,3.1,6.3,6.9
			l-2.4,27.6C261.3,163.6,258,166.7,254.2,166.7z"/>
		<path class="st14" d="M251.2,163.7h-27.5c-3.8,0-6.6-3.1-6.3-6.9l2.4-27.6c0.3-3.8,3.7-6.9,7.5-6.9h27.5c3.8,0,6.6,3.1,6.3,6.9
			l-2.4,27.6C258.3,160.6,255,163.7,251.2,163.7z"/>
		<path class="st25" d="M243.8,140.5c0.5-5.3-4.1-9.7-10.1-9.7s-11.3,4.3-11.8,9.7c-0.4,4.2,2.4,7.8,6.5,9.1
			c-0.7,1.2-1.6,2.2-2.6,2.6c0.2,0.1,0.4,0.2,0.6,0.3c2.2,0.8,4.8-0.3,6-2.4C238.3,150,243.4,145.7,243.8,140.5z"/>
		<path class="st25" d="M256.5,145.1c0.4-4.4-3.3-8-8.3-8c-0.9,0-1.8,0.1-2.6,0.3c0.2,1,0.3,2,0.2,3c-0.3,3.8-2.7,7.2-6,9.3
			c1.4,1.9,3.7,3.1,6.4,3.3c0.6,1.7,2.4,2.5,4.2,1.9c0.2-0.1,0.4-0.1,0.5-0.2c-0.7-0.3-1.3-1-1.6-1.9
			C253.1,151.9,256.2,148.8,256.5,145.1z"/>
	</g>
	<g>
		<path class="st13" d="M241.5,252.2H221c-2.8,0-4.9-2.3-4.7-5.1l1.8-20.6c0.2-2.8,2.7-5.1,5.6-5.1h20.5c2.8,0,4.9,2.3,4.7,5.1
			l-1.8,20.6C246.9,249.9,244.4,252.2,241.5,252.2z"/>
		<path class="st13" d="M271.6,212.3H246c-3.5,0-6.2-2.9-5.9-6.4l2.2-25.7c0.3-3.5,3.4-6.4,7-6.4h25.6c3.5,0,6.2,2.9,5.9,6.4
			l-2.2,25.7C278.2,209.4,275.1,212.3,271.6,212.3z"/>
		<path class="st14" d="M268.6,209.3H243c-3.5,0-6.2-2.9-5.9-6.4l2.2-25.7c0.3-3.5,3.4-6.4,7-6.4h25.6c3.5,0,6.2,2.9,5.9,6.4
			l-2.2,25.7C275.2,206.4,272.1,209.3,268.6,209.3z"/>
		<path class="st14" d="M238.5,249.2H218c-2.8,0-4.9-2.3-4.7-5.1l1.8-20.6c0.2-2.8,2.7-5.1,5.6-5.1h20.5c2.8,0,4.9,2.3,4.7,5.1
			l-1.8,20.6C243.9,246.9,241.4,249.2,238.5,249.2z"/>
		<path class="st25" d="M270.2,179.4h-23.7c-1.5,0-2.8,1.2-3,2.7l-1.4,15.8c-0.1,1.5,1,2.7,2.5,2.7h23.7c1.5,0,2.8-1.2,3-2.7
			l1.4-15.8C272.9,180.6,271.7,179.4,270.2,179.4z M252.1,189.9l-8,7.3l1.3-14.6L252.1,189.9z M246.8,181.3h22.7L258,191.9
			c-0.5,0.4-1.2,0.4-1.6,0L246.8,181.3z M253.3,191.3l1.8,1.9c0.5,0.6,1.3,0.9,2.1,0.9s1.6-0.3,2.2-0.9l2.1-1.9l6.7,7.3h-22.8
			L253.3,191.3z M262.8,189.9l8-7.3l-1.3,14.6L262.8,189.9z"/>
		<g>
			<g>
				<polygon class="st25" points="220.3,228.2 226.2,230.8 232.8,226.1 227.9,232.1 231.5,237.2 237.3,222.8 				"/>
				<polygon class="st25" points="225.8,232.1 228.5,235.4 225.7,235.4 				"/>
			</g>
			<g>
				<g>
					<path class="st25" d="M223.4,236.4l-0.6-0.4c0.3-0.5,0.6-0.8,0.6-0.8l0.6,0.5C224,235.7,223.7,236,223.4,236.4z"/>
				</g>
				<g>
					<path class="st25" d="M223.2,241.4c-0.7-0.4-1.1-0.9-1.3-1.6l0.7-0.2c0.1,0.5,0.4,0.9,1,1.2L223.2,241.4z M222.5,238.8
						l-0.7-0.1c0-0.6,0.2-1.2,0.6-1.9l0.7,0.3C222.7,237.8,222.6,238.3,222.5,238.8z"/>
				</g>
				<g>
					<path class="st25" d="M238.3,244l-0.7-0.1c0-0.2,0.1-0.4,0.1-0.5c0-0.4-0.1-0.7-0.3-0.9l0.6-0.5c0.3,0.4,0.4,0.8,0.4,1.4
						C238.3,243.5,238.3,243.7,238.3,244z M227.6,242.2c-0.3,0-0.5,0-0.8,0v-0.8c0.6,0,1.2,0,1.8,0v0.8
						C228.4,242.2,228,242.2,227.6,242.2z M229.6,242.2l-0.1-0.7c0.6,0,1.2-0.1,1.8-0.2l0.1,0.7
						C230.9,242.1,230.2,242.1,229.6,242.2z M225.9,242.2c-0.1,0-0.2,0-0.3,0c-0.6-0.1-1.1-0.2-1.6-0.4l0.2-0.7
						c0.4,0.1,0.9,0.2,1.4,0.3h0.3L225.9,242.2z M236.7,242c-0.4-0.2-0.9-0.2-1.7-0.2V241c0.8,0,1.4,0.1,1.9,0.3L236.7,242z
						 M232.4,241.9l-0.1-0.7c0.6-0.1,1.3-0.1,1.8-0.1v0.8C233.6,241.8,233,241.9,232.4,241.9z"/>
				</g>
				<g>
					<path class="st25" d="M237.6,245.9l-0.7-0.3c0.1-0.3,0.3-0.6,0.4-0.9l0.7,0.2C237.9,245.2,237.8,245.6,237.6,245.9z"/>
				</g>
			</g>
		</g>
	</g>
</g>
<g>
	<path class="st13" d="M265.4,119.7h-23c-3.2,0-5.6-2.6-5.3-5.8l2-23.1c0.3-3.2,3.1-5.8,6.3-5.8h23c3.2,0,5.5,2.6,5.3,5.8l-2,23.1
		C271.4,117.1,268.6,119.7,265.4,119.7z"/>
	<path class="st14" d="M262.4,116.7h-23c-3.2,0-5.6-2.6-5.3-5.8l2-23.1c0.3-3.2,3.1-5.8,6.3-5.8h23c3.2,0,5.5,2.6,5.3,5.8l-2,23.1
		C268.4,114.1,265.6,116.7,262.4,116.7z"/>
	<path class="st25" d="M263.6,104c-0.4-8.5-6.5-15.3-14.9-16.4c-2.2-1.2-5.2-0.6-7,1.6c-2,2.4-0.2,4,2,5.7c2.3,1.8,4.2,3.1,6.2,0.6
		c0.8-0.9,1.2-2,1.3-3.1c3.8,1.5,6.6,4.6,7.8,8.5c-1.1,0-2.2,0.3-3.2,1c-2.6,1.8-1.4,3.8,0.1,6.2c1.5,2.4,2.9,4.3,5.5,2.5
		C263.7,109.3,264.6,106.3,263.6,104z"/>
</g>
<g>
	<g>
		<path class="st14" d="M254,52.2c5.2,0,10.5,0,15.7,0c0.8,0,0.9-1.2,0.1-1.2c-5.2,0-10.5,0-15.7,0C253.4,51,253.2,52.2,254,52.2
			L254,52.2z"/>
	</g>
	<g>
		<path class="st14" d="M275.4,52.2c1.5,0,3,0,4.5,0c0.8,0,0.9-1.2,0.1-1.2c-1.5,0-3,0-4.5,0C274.8,51,274.7,52.2,275.4,52.2
			L275.4,52.2z"/>
	</g>
	<g class="st26">
		<path class="st25" d="M254,52.2c5.2,0,10.5,0,15.7,0c0.8,0,0.9-1.2,0.1-1.2c-5.2,0-10.5,0-15.7,0C253.4,51,253.2,52.2,254,52.2
			L254,52.2z"/>
	</g>
	<g class="st26">
		<path class="st25" d="M275.4,52.2c1.5,0,3,0,4.5,0c0.8,0,0.9-1.2,0.1-1.2c-1.5,0-3,0-4.5,0C274.8,51,274.7,52.2,275.4,52.2
			L275.4,52.2z"/>
	</g>
</g>
<g>
	<g>
		<path class="st14" d="M305.7,173.9c-0.5,5.2-0.9,10.5-1.4,15.8c-0.1,0.8,1.1,0.9,1.2,0.1c0.5-5.2,0.9-10.5,1.4-15.8
			C307,173.2,305.8,173.1,305.7,173.9L305.7,173.9z"/>
	</g>
	<g>
		<path class="st14" d="M303.8,195.3c-0.1,1.5-0.3,3-0.4,4.5c-0.1,0.8,1.1,0.9,1.2,0.1c0.1-1.5,0.3-3,0.4-4.5
			C305.1,194.6,303.9,194.5,303.8,195.3L303.8,195.3z"/>
	</g>
	<g class="st26">
		<path class="st25" d="M305.7,173.9c-0.5,5.2-0.9,10.5-1.4,15.8c-0.1,0.8,1.1,0.9,1.2,0.1c0.5-5.2,0.9-10.5,1.4-15.8
			C307,173.2,305.8,173.1,305.7,173.9L305.7,173.9z"/>
	</g>
	<g class="st26">
		<path class="st25" d="M303.8,195.3c-0.1,1.5-0.3,3-0.4,4.5c-0.1,0.8,1.1,0.9,1.2,0.1c0.1-1.5,0.3-3,0.4-4.5
			C305.1,194.6,303.9,194.5,303.8,195.3L303.8,195.3z"/>
	</g>
</g>
</svg>
