<svg xmlns="http://www.w3.org/2000/svg" id="Layer_1" data-name="Layer 1" viewBox="0 0 320 80.08"><defs><style>.cls-1{fill:#1e80b8;}.cls-2{fill:#606060;}.cls-3{fill:#f60;}</style></defs><title>logo</title><path class="cls-1" d="M107.32,18.74a13,13,0,0,1-.86,4.84,10.45,10.45,0,0,1-2.4,3.67,10.13,10.13,0,0,1-3.64,2.3,12.85,12.85,0,0,1-4.56.79,12.1,12.1,0,0,1-5.69-1.14V42.4H87.48A4.72,4.72,0,0,1,86,42.16a3.42,3.42,0,0,1-1.33-.83,4.37,4.37,0,0,1-1-1.51,6.14,6.14,0,0,1-.37-2.29V9.75c.47-.16,1.08-.34,1.84-.53s1.55-.37,2.37-.52,1.65-.28,2.48-.38a20.71,20.71,0,0,1,2.15-.14H96a14.52,14.52,0,0,1,4.58.69,10,10,0,0,1,3.57,2,9.24,9.24,0,0,1,2.32,3.33A11.51,11.51,0,0,1,107.32,18.74Zm-7,.6c0-1.95-.41-3.34-1.24-4.18a5.35,5.35,0,0,0-3.91-1.24H93a6.64,6.64,0,0,0-1.43.18c-.53.12-1,.21-1.38.28V24a18.48,18.48,0,0,0,2.21.43A18.9,18.9,0,0,0,95,24.6a5.42,5.42,0,0,0,4-1.39A5.3,5.3,0,0,0,100.34,19.34Z" transform="translate(0 0.04)"/><path class="cls-1" d="M127.72,22.1a16.52,16.52,0,0,0-1.67-.53,8.89,8.89,0,0,0-2.21-.24,4.34,4.34,0,0,0-3.41,1.31c-.79.87-1.19,2.33-1.19,4.38V42.4H117.4a5.38,5.38,0,0,1-3.55-1.09,3.88,3.88,0,0,1-1.32-3.17V25.83a14,14,0,0,1,.55-3.9,9,9,0,0,1,1.73-3.34,8.75,8.75,0,0,1,3.07-2.32,10.46,10.46,0,0,1,4.53-.9,7.31,7.31,0,0,1,2.59.4,5,5,0,0,1,1.71,1,4,4,0,0,1,1,1.4,4.34,4.34,0,0,1,.3,1.54V22.1Z" transform="translate(0 0.04)"/><path class="cls-1" d="M141,9.8a3.74,3.74,0,0,1-1.17,2.76A3.73,3.73,0,0,1,137,13.72a3.66,3.66,0,0,1-2.72-1.16,3.76,3.76,0,0,1-1.15-2.76,3.67,3.67,0,0,1,1.15-2.71A3.72,3.72,0,0,1,137,6a3.79,3.79,0,0,1,2.76,1.14A3.65,3.65,0,0,1,141,9.8Zm4.77,28.82a4.3,4.3,0,0,1-.92,3.1,4.26,4.26,0,0,1-3.06.92,7.87,7.87,0,0,1-5.93-2.13,8.59,8.59,0,0,1-2.06-6.2V16.22h1.89a4.81,4.81,0,0,1,3.49,1.21,5,5,0,0,1,1.26,3.73V33.68a3.38,3.38,0,0,0,.92,2.77,5.06,5.06,0,0,0,3.15.74h1.26Z" transform="translate(0 0.04)"/><path class="cls-1" d="M172.41,42.4a5,5,0,0,1-3.55-1.24A4.08,4.08,0,0,1,167.54,38V27.43q0-3.43-1.4-5a5.16,5.16,0,0,0-4-1.53,4.4,4.4,0,0,0-3.51,1.56,6.63,6.63,0,0,0-1.33,4.44V42.4h-2a4.65,4.65,0,0,1-3.4-1.24A4.15,4.15,0,0,1,150.64,38V26.49a12.6,12.6,0,0,1,.72-4.19,11,11,0,0,1,2.18-3.68A10.46,10.46,0,0,1,157.29,16a13.68,13.68,0,0,1,5.41-1,12.77,12.77,0,0,1,4.45.77,10.08,10.08,0,0,1,3.65,2.27,11,11,0,0,1,2.48,3.72,13.05,13.05,0,0,1,.92,5V42.4Z" transform="translate(0 0.04)"/><path class="cls-1" d="M182.12,16.7a11.72,11.72,0,0,1,.11-1.7,7.59,7.59,0,0,1,.33-1.31,4.49,4.49,0,0,1,.6-1.12c.24-.34.55-.73.9-1.17a7.46,7.46,0,0,1,1.52-1.32,2.92,2.92,0,0,1,1.61-.52h1.55v6H198v2.74a3.17,3.17,0,0,1-1,2.11,3.84,3.84,0,0,1-3,1.06h-5.3V32a5.15,5.15,0,0,0,1.09,3.72A4.15,4.15,0,0,0,193,36.8a9.41,9.41,0,0,0,4.8-.94H198v2.37a4,4,0,0,1-1.46,3.27,6.9,6.9,0,0,1-4.4,1.19c-3.4,0-5.93-.87-7.57-2.6s-2.46-4.17-2.46-7.31Z" transform="translate(0 0.04)"/><path class="cls-1" d="M225.75,25.4a5.13,5.13,0,0,1-3,5.07q-3,1.43-9.57,1.42h-4.36a5.9,5.9,0,0,0,2.45,4,8.38,8.38,0,0,0,5,1.49,19,19,0,0,0,4.33-.53,8.27,8.27,0,0,0,3.85-2h.24V37a5.77,5.77,0,0,1-.47,2.37,4.62,4.62,0,0,1-1.61,1.92,8.69,8.69,0,0,1-3,1.29,18.65,18.65,0,0,1-4.58.48,13.11,13.11,0,0,1-4.87-.95A12.94,12.94,0,0,1,206,39.35a13.57,13.57,0,0,1-3-4.24,13.42,13.42,0,0,1-1.11-5.55,17.72,17.72,0,0,1,1-6,13.37,13.37,0,0,1,2.7-4.59A11.51,11.51,0,0,1,209.75,16,13.62,13.62,0,0,1,215,15a11.34,11.34,0,0,1,4,.72,10.58,10.58,0,0,1,3.42,2,10,10,0,0,1,2.38,3.27A10.18,10.18,0,0,1,225.75,25.4Zm-6.25-.8a3.5,3.5,0,0,0-1.37-3,6.16,6.16,0,0,0-3.69-1,5.28,5.28,0,0,0-2.21.47,6,6,0,0,0-1.76,1.24,5.24,5.24,0,0,0-1.17,1.8,6.68,6.68,0,0,0-.46,2.18l-.05.89h3c1.6,0,2.89,0,3.89-.14a10.76,10.76,0,0,0,2.35-.45,2.26,2.26,0,0,0,1.18-.8A2.06,2.06,0,0,0,219.5,24.6Z" transform="translate(0 0.04)"/><path class="cls-1" d="M247.28,22.1a16.52,16.52,0,0,0-1.67-.53,8.81,8.81,0,0,0-2.2-.24A4.35,4.35,0,0,0,240,22.64c-.79.87-1.18,2.33-1.18,4.38V42.4H237a5.38,5.38,0,0,1-3.55-1.09,3.88,3.88,0,0,1-1.32-3.17V25.83a14.34,14.34,0,0,1,.54-3.9,9.16,9.16,0,0,1,1.73-3.34,8.79,8.79,0,0,1,3.08-2.32,10.46,10.46,0,0,1,4.53-.9,7.31,7.31,0,0,1,2.59.4,5,5,0,0,1,1.71,1,3.93,3.93,0,0,1,.94,1.4,4.34,4.34,0,0,1,.3,1.54V22.1Z" transform="translate(0 0.04)"/><path class="cls-1" d="M274.15,18.79a18.66,18.66,0,0,1-.52,2.85,49.66,49.66,0,0,1-1.76,5.62q-.71,1.84-1.56,3.93c-.58,1.38-1.19,2.76-1.86,4.11s-1.36,2.68-2.12,4-1.48,2.42-2.21,3.44h-1.28a4.55,4.55,0,0,1-2.43-.59A7.12,7.12,0,0,1,258.48,40a49,49,0,0,1-2.8-5.14c-1-2-1.89-4.18-2.74-6.43s-1.56-4.5-2.15-6.74a34.81,34.81,0,0,1-1.1-6.11h3.58a3.7,3.7,0,0,1,2.76,1,4.15,4.15,0,0,1,1.21,2.14,70.67,70.67,0,0,0,1.83,7.59,48,48,0,0,0,3.28,8c.63-1.26,1.24-2.64,1.83-4.12s1.14-3,1.66-4.66,1-3.28,1.37-5,.72-3.36,1-5.06H271a3.16,3.16,0,0,1,2.44.78A3.51,3.51,0,0,1,274.15,18.79Z" transform="translate(0 0.04)"/><path class="cls-1" d="M300.28,33.27a9.89,9.89,0,0,1-.74,3.9,8.59,8.59,0,0,1-2.08,3,9.49,9.49,0,0,1-3.2,1.95,11.57,11.57,0,0,1-4.08.69h-1.35a14,14,0,0,1-4.36-.65,10.7,10.7,0,0,1-3.4-1.75,7.61,7.61,0,0,1-2.95-6.08,8,8,0,0,1,.69-3.32,6.67,6.67,0,0,1,2.26-2.65,12.06,12.06,0,0,1,4.11-1.77,26,26,0,0,1,6.24-.64h2.32v-.34c0-1.89-.46-3.18-1.39-3.88a7.31,7.31,0,0,0-4.35-1,14.94,14.94,0,0,0-3.21.31,12.21,12.21,0,0,0-2.45.77,9,9,0,0,0-1.76,1,7.32,7.32,0,0,0-1.08,1h-.24V21.67a5.41,5.41,0,0,1,.52-2.25,6.07,6.07,0,0,1,1.68-2.14,9.17,9.17,0,0,1,3-1.56,15.11,15.11,0,0,1,4.48-.59,15.87,15.87,0,0,1,4.29.57,9,9,0,0,1,3.6,1.95,9.61,9.61,0,0,1,2.49,3.69,15.58,15.58,0,0,1,.93,5.78Zm-6.49-2.52h-2.37a18.44,18.44,0,0,0-3.15.22,6.25,6.25,0,0,0-2,.64,2.35,2.35,0,0,0-1,1.06,3.54,3.54,0,0,0-.29,1.45,2.84,2.84,0,0,0,1.18,2.45,5.74,5.74,0,0,0,3.42.86q4.26,0,4.26-4.11Z" transform="translate(0 0.04)"/><path class="cls-1" d="M320,38.62a3.82,3.82,0,0,1-1.11,3.1,5.2,5.2,0,0,1-3.34.92q-4.17,0-6.34-2.13a8.34,8.34,0,0,1-2.17-6.2V6.68h1.89A4.6,4.6,0,0,1,312.59,8a4.75,4.75,0,0,1,1.11,3.19V33.68a3.14,3.14,0,0,0,1.07,2.77,6.12,6.12,0,0,0,3.44.74H320Z" transform="translate(0 0.04)"/><path class="cls-2" d="M85.17,68.62a4.37,4.37,0,0,1-1.8-1.26l1.07-1.44a5.13,5.13,0,0,0,1.4,1,3.43,3.43,0,0,0,1.46.35,2.74,2.74,0,0,0,1.44-.35,1.18,1.18,0,0,0,.56-1.07,1.23,1.23,0,0,0-.35-.91,2.15,2.15,0,0,0-.79-.51c-.29-.11-.78-.27-1.48-.48-1.89-.61-2.83-1.68-2.83-3.23a3.17,3.17,0,0,1,1-2.38,4,4,0,0,1,2.87-1,7,7,0,0,1,2.09.29,5.2,5.2,0,0,1,1.68.94l-1,1.52a3.1,3.1,0,0,0-1.08-.72,3.53,3.53,0,0,0-1.24-.29,2.27,2.27,0,0,0-1.29.36,1.12,1.12,0,0,0-.53,1,1.11,1.11,0,0,0,.34.84,2.28,2.28,0,0,0,.73.49c.25.09.74.26,1.47.49a5.48,5.48,0,0,1,2.12,1.18,2.55,2.55,0,0,1,.76,2A3.42,3.42,0,0,1,90.69,68a4.48,4.48,0,0,1-3.18,1A6.56,6.56,0,0,1,85.17,68.62Z" transform="translate(0 0.04)"/><path class="cls-2" d="M107.1,58a5.28,5.28,0,0,1,2,2.1,6.53,6.53,0,0,1,.72,3.12,6,6,0,0,1-.77,3.06,5.32,5.32,0,0,1-2.14,2,6.45,6.45,0,0,1-3,.72,5.26,5.26,0,0,1-2.3-.52,4.64,4.64,0,0,1-1.76-1.4v7H97.29V57.55h2.17l.21,1.87a6.73,6.73,0,0,1,2-1.55,5.74,5.74,0,0,1,2.58-.58A5.35,5.35,0,0,1,107.1,58Zm-1.8,8.54a3.81,3.81,0,0,0,1.43-1.36,3.69,3.69,0,0,0,.53-1.94,3.92,3.92,0,0,0-.49-2,3.67,3.67,0,0,0-3.25-1.9,3.84,3.84,0,0,0-2.42.78,3.71,3.71,0,0,0-1.32,2.13v1.84a3.32,3.32,0,0,0,1.21,2.1,3.62,3.62,0,0,0,2.37.82A4,4,0,0,0,105.3,66.57Z" transform="translate(0 0.04)"/><path class="cls-2" d="M115.41,52.77a1.55,1.55,0,0,1,1-.4,1.48,1.48,0,0,1,1,.4,1.31,1.31,0,0,1,.44,1,1.27,1.27,0,0,1-.44,1,1.49,1.49,0,0,1-1,.41,1.56,1.56,0,0,1-1-.41,1.25,1.25,0,0,1-.45-1A1.28,1.28,0,0,1,115.41,52.77Zm2.22,5V68.81h-2.48V57.74Z" transform="translate(0 0.04)"/><path class="cls-2" d="M131.17,68.73a6.51,6.51,0,0,1-2.1.34,6.69,6.69,0,0,1-3.16-.72,5.2,5.2,0,0,1-2.14-2,6,6,0,0,1-.76-3.06,5.7,5.7,0,0,1,.8-3,5.52,5.52,0,0,1,2.14-2,6,6,0,0,1,2.88-.73,6.35,6.35,0,0,1,4.2,1.39l-1.26,1.64a5.18,5.18,0,0,0-1.23-.69,4.07,4.07,0,0,0-1.49-.28,3.45,3.45,0,0,0-1.81.5A3.54,3.54,0,0,0,126,61.35a3.91,3.91,0,0,0-.47,1.9,3.71,3.71,0,0,0,.5,1.89,3.77,3.77,0,0,0,1.35,1.37,3.82,3.82,0,0,0,1.95.5,3.7,3.7,0,0,0,2.38-.8L133,67.76A5.74,5.74,0,0,1,131.17,68.73Z" transform="translate(0 0.04)"/><path class="cls-2" d="M146.05,66l1.15,1.85a7.72,7.72,0,0,1-1.92.92,6.77,6.77,0,0,1-5.21-.43,5.35,5.35,0,0,1-2.12-2.1,6.07,6.07,0,0,1-.75-3,5.7,5.7,0,0,1,.81-3,6,6,0,0,1,2.24-2.14,6.29,6.29,0,0,1,3.1-.78A5.3,5.3,0,0,1,147,58.56a6.5,6.5,0,0,1,2,3.54l-8.77,3.07a3.45,3.45,0,0,0,1.3,1.3,3.67,3.67,0,0,0,1.86.46A4.55,4.55,0,0,0,146.05,66Zm-5.4-5.64a3.87,3.87,0,0,0-1,2.73c0,.27,0,.47,0,.61l6.45-2.37A3.75,3.75,0,0,0,145,59.82a3,3,0,0,0-1.83-.56A3.27,3.27,0,0,0,140.65,60.33Z" transform="translate(0 0.04)"/><path class="cls-2" d="M174.81,57.74V68.81h-2.25l-.16-2.12a4.36,4.36,0,0,1-1.74,1.83,4.88,4.88,0,0,1-2.62.71,3.52,3.52,0,0,1-2.5-.92,3.33,3.33,0,0,1-1-2.39V57.74H167V65a2.35,2.35,0,0,0,.55,1.48,1.92,1.92,0,0,0,1.48.57,2.77,2.77,0,0,0,1.66-.54A3.77,3.77,0,0,0,171.88,65a5.18,5.18,0,0,0,.44-2.14V57.74Z" transform="translate(0 0.04)"/><path class="cls-2" d="M191,58a5.28,5.28,0,0,1,2,2.1,6.53,6.53,0,0,1,.72,3.12,6,6,0,0,1-.77,3.06,5.32,5.32,0,0,1-2.14,2,6.45,6.45,0,0,1-3.05.72,5.26,5.26,0,0,1-2.3-.52,4.64,4.64,0,0,1-1.76-1.4v7h-2.49V57.55h2.17l.21,1.87a6.81,6.81,0,0,1,2-1.55,5.82,5.82,0,0,1,2.59-.58A5.35,5.35,0,0,1,191,58Zm-1.8,8.54a3.89,3.89,0,0,0,1.43-1.36,3.69,3.69,0,0,0,.53-1.94,3.92,3.92,0,0,0-.49-2,3.61,3.61,0,0,0-1.35-1.39,3.66,3.66,0,0,0-1.9-.51,3.82,3.82,0,0,0-2.42.78,3.71,3.71,0,0,0-1.32,2.13v1.84a3.32,3.32,0,0,0,1.21,2.1,3.62,3.62,0,0,0,2.37.82A4,4,0,0,0,189.15,66.57Z" transform="translate(0 0.04)"/><path class="cls-2" d="M220,57.74l-7.14,16.38h-2.46l2.54-5.69-5.13-10.69h2.81l3.58,7.88,3.5-7.88Z" transform="translate(0 0.04)"/><path class="cls-2" d="M224.14,60.18a5.65,5.65,0,0,1,2.19-2.12,6.38,6.38,0,0,1,3.16-.77,6.22,6.22,0,0,1,3.14.77,5.5,5.5,0,0,1,2.14,2.11,6.23,6.23,0,0,1,0,6,5.44,5.44,0,0,1-2.15,2.13,6.48,6.48,0,0,1-3.18.77,6.6,6.6,0,0,1-3.13-.73,5.41,5.41,0,0,1-2.17-2.07,6,6,0,0,1-.79-3.1A5.81,5.81,0,0,1,224.14,60.18Zm2.19,4.94a3.65,3.65,0,0,0,1.28,1.39,3.41,3.41,0,0,0,1.8.5A3.35,3.35,0,0,0,232,65.92a3.85,3.85,0,0,0,1-2.73,3.91,3.91,0,0,0-1-2.74,3.48,3.48,0,0,0-4.38-.59,3.68,3.68,0,0,0-1.27,1.41,4.18,4.18,0,0,0,0,3.85Z" transform="translate(0 0.04)"/><path class="cls-2" d="M251.17,57.74V68.81h-2.24l-.16-2.12A4.49,4.49,0,0,1,247,68.52a4.91,4.91,0,0,1-2.62.71,3.5,3.5,0,0,1-2.5-.92,3.33,3.33,0,0,1-1-2.39V57.74h2.49V65a2.3,2.3,0,0,0,.55,1.48,1.9,1.9,0,0,0,1.48.57,2.79,2.79,0,0,0,1.66-.54A3.86,3.86,0,0,0,248.25,65a5.18,5.18,0,0,0,.44-2.14V57.74Z" transform="translate(0 0.04)"/><path class="cls-2" d="M261.13,58.75a6.11,6.11,0,0,1,1.67-1.06,4.33,4.33,0,0,1,1.55-.4l-.11,2.48a4.1,4.1,0,0,0-2.18.48,3.82,3.82,0,0,0-1.52,1.49,3.9,3.9,0,0,0-.55,2v5.06h-2.48V57.74h2.21l.19,2.62A5,5,0,0,1,261.13,58.75Z" transform="translate(0 0.04)"/><path class="cls-2" d="M282.5,48.09V68.81H280V48.09Z" transform="translate(0 0.04)"/><path class="cls-2" d="M289.1,52.77a1.51,1.51,0,0,1,1-.4,1.45,1.45,0,0,1,1,.4,1.27,1.27,0,0,1,.44,1,1.24,1.24,0,0,1-.44,1,1.46,1.46,0,0,1-1,.41,1.52,1.52,0,0,1-1-.41,1.25,1.25,0,0,1-.45-1A1.28,1.28,0,0,1,289.1,52.77Zm2.22,5V68.81h-2.49V57.74Z" transform="translate(0 0.04)"/><path class="cls-2" d="M298.56,60h-1.9V57.71h1.9V53.06a5.55,5.55,0,0,1,1.1-3.69,4,4,0,0,1,3.21-1.28,5.2,5.2,0,0,1,1.25.17,4.08,4.08,0,0,1,1.18.5l-1.07,1.81a1.48,1.48,0,0,0-1.12-.42,1.81,1.81,0,0,0-1.54.69,3.81,3.81,0,0,0-.52,2.25v4.62h3.53V60h-3.53v8.85h-2.49Z" transform="translate(0 0.04)"/><path class="cls-2" d="M317.09,66l1.14,1.85a7.49,7.49,0,0,1-1.91.92,6.77,6.77,0,0,1-5.21-.43,5.35,5.35,0,0,1-2.12-2.1,6.07,6.07,0,0,1-.75-3,5.7,5.7,0,0,1,.81-3,6,6,0,0,1,2.23-2.14,6.35,6.35,0,0,1,3.11-.78A5.3,5.3,0,0,1,318,58.56a6.5,6.5,0,0,1,2,3.54l-8.77,3.07a3.45,3.45,0,0,0,1.3,1.3,3.67,3.67,0,0,0,1.86.46A4.55,4.55,0,0,0,317.09,66Zm-5.4-5.64a3.87,3.87,0,0,0-1,2.73c0,.27,0,.47,0,.61l6.45-2.37A3.75,3.75,0,0,0,316,59.82a3,3,0,0,0-1.83-.56A3.27,3.27,0,0,0,311.69,60.33Z" transform="translate(0 0.04)"/><path class="cls-3" d="M47.9,1,45.22,0,40.51,11.59C24.86,5.84,7.76,12.51,2,26.88S3.78,57.93,19,64.68L14.28,76.45,17,77.53A41.28,41.28,0,0,0,47.9,1ZM37.18,19.84l-7,17.21-18.84-7.6C15.73,20.37,26.86,16.21,37.18,19.84ZM10.05,33.22l0,.21,18.58,7.46L26.1,47.22l-3.73,9.21C13,52.12,7.93,42.34,10.05,33.22ZM22.79,66l9.59-23.59L56.32,52A28.48,28.48,0,0,1,22.79,66ZM58,48.24l-24-9.69,10.2-25.11A28.49,28.49,0,0,1,58,48.24Z" transform="translate(0 0.04)"/></svg>