<svg width="126" height="179" viewBox="0 0 126 179" fill="none" xmlns="http://www.w3.org/2000/svg">
<path fill-rule="evenodd" clip-rule="evenodd" d="M75.5373 156.849C75.5117 155.279 74.9968 153.756 74.0646 152.493C71.586 149.124 66.8376 148.401 63.4691 150.881L53.777 158.013C52.8199 158.717 52.0418 159.636 51.5055 160.697C50.9692 161.757 50.6898 162.929 50.6898 164.117C50.6898 165.305 50.9692 166.477 51.5055 167.537C52.0418 168.597 52.8199 169.517 53.777 170.221L63.4691 177.353C66.8376 179.831 71.586 179.109 74.0646 175.74C75.049 174.406 75.5665 172.785 75.5373 171.128C95.8579 168.992 107.919 163.625 115.092 156.099C125.882 144.777 125.696 128.463 124.47 109.892C124.445 109.496 124.27 109.124 123.981 108.852C123.692 108.58 123.31 108.428 122.913 108.428C122.515 108.428 122.133 108.58 121.844 108.852C121.555 109.124 121.38 109.496 121.355 109.892C120.808 118.189 120.322 126.028 118.603 132.887C116.949 139.486 114.148 145.162 108.91 149.377C102.31 154.687 91.962 157.257 75.5373 156.849ZM51.2346 22.9019C51.2601 24.4187 51.7403 25.9431 52.7073 27.2569C55.1867 30.6262 59.9343 31.3483 63.3036 28.8696L72.9949 21.7378C73.9522 21.0337 74.7304 20.1144 75.2668 19.054C75.8032 17.9936 76.0826 16.822 76.0826 15.6337C76.0826 14.4454 75.8032 13.2737 75.2668 12.2134C74.7304 11.153 73.9522 10.2337 72.9949 9.52957L63.3036 2.39773C59.9343 -0.081666 55.1867 0.64118 52.7073 4.01047C51.7228 5.34415 51.2053 6.96505 51.2346 8.62245C30.914 10.7588 18.8534 16.1251 11.6803 23.6517C0.890073 34.9738 1.07584 51.2876 2.30206 69.8577C2.32942 70.252 2.50539 70.6213 2.79443 70.891C3.08347 71.1607 3.46405 71.3106 3.85936 71.3106C4.25467 71.3106 4.63526 71.1607 4.9243 70.891C5.21334 70.6213 5.3893 70.252 5.41666 69.8577C5.96423 61.5618 6.44962 53.7228 8.16947 46.8637C9.82341 40.2644 12.6242 34.588 17.8624 30.3738C24.4616 25.0636 34.8099 22.4936 51.2346 22.9019Z" fill="#FF7300"/>
<path fill-rule="evenodd" clip-rule="evenodd" d="M6.01127 53.7835C5.86292 54.0197 5.78058 54.2913 5.77282 54.5701C5.76506 54.8488 5.83217 55.1246 5.96716 55.3687C6.10215 55.6127 6.30008 55.8161 6.54036 55.9577C6.78063 56.0993 7.05447 56.1739 7.33337 56.1738L8.44198 55.7116C8.6622 55.5086 9.12512 55.3798 9.75059 55.1985C11.1453 54.794 13.1865 54.4359 15.7401 54.1131C26.0255 52.8135 44.3484 52.1603 62.6645 52.1558C80.9791 52.1513 99.2877 52.794 109.545 54.1034C112.088 54.4284 114.12 54.7895 115.505 55.1985C116.124 55.382 116.582 55.5078 116.791 55.7168C117.079 56.0137 117.474 56.184 117.887 56.1901C118.301 56.1962 118.701 56.0377 118.997 55.7494C119.294 55.4612 119.465 55.0668 119.471 54.653C119.477 54.2392 119.318 53.84 119.03 53.5431C119.03 53.5431 111.545 45.5992 104.31 38.364C103.312 37.3655 101.377 36.4524 98.6682 35.758C95.0704 34.8359 90.0008 34.1947 84.1461 33.8067C68.4277 32.7663 46.9836 33.5273 33.5424 35.2517C27.5184 36.0247 23.0465 37.0487 21.227 38.1236C12.7064 43.1595 6.01127 53.7835 6.01127 53.7835Z" fill="#1E80B8"/>
<path fill-rule="evenodd" clip-rule="evenodd" d="M118.998 53.5101C118.643 53.1543 118.032 52.7737 117.142 52.4509C115.653 51.9108 113.173 51.4202 109.926 51.006C99.5656 49.6846 81.0727 49.0277 62.5851 49.0344C44.0975 49.0412 25.6151 49.7116 15.2727 51.0262C12.0323 51.4382 9.55964 51.9251 8.07949 52.4591C7.19035 52.779 6.58137 53.158 6.23005 53.5101C5.32593 54.4134 4.35065 56.9505 3.60833 60.7228C2.06751 68.555 0.987357 82.1385 0.743162 95.8943C0.497469 109.675 1.09447 123.626 2.86825 132.159C3.70496 136.181 4.88099 139.068 6.2293 140.416L6.23005 140.417C7.56189 141.749 10.9754 143.012 15.9244 143.947C26.5184 145.948 44.5521 146.963 62.5896 146.968C80.6278 146.974 98.6698 145.969 109.279 143.963C114.235 143.027 117.656 141.759 118.998 140.417C120.356 139.058 121.54 136.167 122.384 132.145C124.175 123.608 124.781 109.669 124.537 95.8996C124.294 82.1543 123.206 68.5805 121.647 60.7408C120.897 56.9678 119.914 54.4254 118.998 53.5101Z" fill="#42A7E0"/>
<path fill-rule="evenodd" clip-rule="evenodd" d="M108.808 107.898C108.397 107.488 107.244 106.988 105.483 106.717C102.437 106.247 97.1499 106.043 91.8832 106.073C85.8405 106.107 79.8256 106.455 77.2278 107.021C76.1686 107.251 75.505 107.622 75.2285 107.899C74.8615 108.266 74.4398 109.049 74.1454 110.192C73.66 112.082 73.3252 115.21 73.2593 118.386C73.1933 121.586 73.4038 124.83 73.9559 126.919C74.269 128.106 74.7312 128.98 75.2285 129.479C75.7057 129.956 76.875 130.481 78.6076 130.801C81.6937 131.372 86.9237 131.634 92.1364 131.607C97.3417 131.58 102.528 131.268 105.536 130.724C107.251 130.413 108.384 129.903 108.808 129.479C109.253 129.034 109.697 128.198 110.004 127.034C110.532 125.03 110.8 121.838 110.793 118.652C110.784 115.467 110.5 112.29 109.981 110.311C109.676 109.152 109.236 108.327 108.808 107.899V107.898ZM17.5237 126.247H37.5918C38.4533 126.247 39.1529 125.548 39.1529 124.687C39.1529 123.825 38.4533 123.126 37.5918 123.126H17.5237C17.1157 123.135 16.7274 123.303 16.442 123.595C16.1566 123.887 15.9968 124.278 15.9968 124.686C15.9968 125.095 16.1566 125.486 16.442 125.778C16.7274 126.07 17.1157 126.238 17.5237 126.247ZM17.5237 114.251H45.0832C45.4912 114.242 45.8795 114.074 46.1649 113.782C46.4503 113.49 46.6101 113.098 46.6101 112.69C46.6101 112.282 46.4503 111.89 46.1649 111.599C45.8795 111.307 45.4912 111.138 45.0832 111.13H17.5237C17.1157 111.138 16.7274 111.307 16.442 111.599C16.1566 111.89 15.9968 112.282 15.9968 112.69C15.9968 113.098 16.1566 113.49 16.442 113.782C16.7274 114.074 17.1157 114.242 17.5237 114.251Z" fill="#1E80B8"/>
<path fill-rule="evenodd" clip-rule="evenodd" d="M51.1663 33.7693C50.8093 33.7876 50.4694 33.9279 50.2034 34.1668C49.9374 34.4057 49.7614 34.7286 49.7049 35.0816L47.2487 50.4794C47.213 50.7047 47.2271 50.9352 47.29 51.1545C47.3529 51.3738 47.4631 51.5767 47.6129 51.7488C47.7626 51.921 47.9482 52.0582 48.1567 52.1509C48.3652 52.2436 48.5914 52.2895 48.8195 52.2854C57.8398 52.1154 67.3851 52.1124 76.4083 52.2772C76.6364 52.2811 76.8625 52.235 77.0709 52.1421C77.2792 52.0493 77.4647 51.9119 77.6143 51.7397C77.7638 51.5675 77.8739 51.3646 77.9366 51.1454C77.9994 50.9261 78.0134 50.6957 77.9776 50.4704L75.4622 34.7026C75.4047 34.3412 75.2219 34.0115 74.9458 33.7712C74.6698 33.5309 74.318 33.3952 73.9521 33.388C66.5356 33.2427 58.5896 33.391 51.1663 33.7693Z" fill="#155B83"/>
<path fill-rule="evenodd" clip-rule="evenodd" d="M47.9822 49.1797C47.5868 49.1876 47.2093 49.3453 46.9257 49.6209C46.6422 49.8965 46.4739 50.2695 46.4548 50.6644L45.3777 72.7423C45.3335 73.438 45.4325 74.1354 45.6684 74.7914C45.9043 75.4474 46.2722 76.0481 46.7493 76.5564C47.2264 77.0646 47.8026 77.4697 48.4424 77.7466C49.0822 78.0235 49.7719 78.1663 50.469 78.1663H74.7589C75.456 78.1662 76.1457 78.0233 76.7854 77.7464C77.4252 77.4695 78.0013 77.0644 78.4784 76.5561C78.9555 76.0479 79.3234 75.4472 79.5593 74.7913C79.7953 74.1353 79.8943 73.438 79.8503 72.7423L78.7732 50.6554C78.7539 50.2603 78.5853 49.8872 78.3015 49.6116C78.0177 49.336 77.6399 49.1784 77.2443 49.1708C67.4911 48.9861 57.7352 48.9891 47.9822 49.1797Z" fill="#155B83"/>
</svg>
