<svg width="200" height="200" viewBox="0 0 200 200" fill="none" xmlns="http://www.w3.org/2000/svg">
<path d="M45.0908 76.3163V63.3731C45.0908 59.9404 46.4545 56.6483 48.8818 54.221C51.3091 51.7936 54.6012 50.43 58.034 50.43H138.929C142.361 50.43 145.653 51.7936 148.081 54.221C150.508 56.6483 151.872 59.9404 151.872 63.3731V76.3163H45.0908ZM117.495 129.286C119.358 133.851 122.097 138.006 125.558 141.517C127.862 143.847 130.457 145.86 133.266 147.504C136.085 145.852 138.674 143.837 140.967 141.511C144.429 138.016 147.167 133.855 149.037 129.28C150.907 124.704 151.872 119.812 151.872 114.861L133.266 105.438L114.66 114.861C114.66 119.812 115.624 124.711 117.495 129.286Z" fill="#92D7FF"/>
<path fill-rule="evenodd" clip-rule="evenodd" d="M58.0341 55.2836C53.5687 55.2836 49.9447 58.9077 49.9447 63.3731V71.4626H147.018V63.3731C147.018 58.9077 143.394 55.2836 138.929 55.2836H58.0341ZM147.018 81.1699V89.2594C147.018 90.5467 147.53 91.7812 148.44 92.6915C149.35 93.6017 150.585 94.1131 151.872 94.1131C153.159 94.1131 154.394 93.6017 155.304 92.6915C156.214 91.7812 156.726 90.5467 156.726 89.2594V63.3731C156.726 58.6531 154.851 54.1264 151.513 50.7889C148.175 47.4513 143.649 45.5763 138.929 45.5763H58.0341C53.3141 45.5763 48.7874 47.4513 45.4499 50.7889C42.1123 54.1264 40.2373 58.6531 40.2373 63.3731V124.853C40.2373 129.573 42.1123 134.1 45.4499 137.437C48.7874 140.775 53.3141 142.65 58.0341 142.65H93.6278C94.915 142.65 96.1496 142.138 97.0598 141.228C97.9701 140.318 98.4814 139.083 98.4814 137.796C98.4814 136.509 97.9701 135.274 97.0598 134.364C96.1496 133.454 94.915 132.942 93.6278 132.942H58.0341C53.5687 132.942 49.9447 129.318 49.9447 124.853V81.1699H147.018Z" fill="#1E80B8"/>
<path fill-rule="evenodd" clip-rule="evenodd" d="M131.072 101.102C131.752 100.758 132.504 100.578 133.266 100.578C134.028 100.578 134.78 100.758 135.46 101.102L154.065 110.531C154.867 110.937 155.539 111.558 156.009 112.323C156.478 113.089 156.726 113.969 156.725 114.867C156.725 120.439 155.638 125.966 153.535 131.124C150.011 139.747 143.751 146.974 135.719 151.691C134.975 152.126 134.128 152.356 133.266 152.356C132.404 152.356 131.557 152.126 130.813 151.691C127.625 149.826 124.697 147.55 122.102 144.921C118.2 140.974 115.113 136.282 113.003 131.124C110.894 125.966 109.806 120.446 109.806 114.861C109.806 113.964 110.055 113.085 110.524 112.32C110.994 111.556 111.666 110.937 112.466 110.531L131.072 101.102ZM119.643 117.78C119.934 121.1 120.724 124.361 121.986 127.448C124.327 133.174 128.237 138.122 133.266 141.724C138.295 138.122 142.204 133.174 144.546 127.448C145.808 124.361 146.597 121.1 146.888 117.78L133.266 110.881L119.643 117.78Z" fill="#FF7300"/>
<circle cx="99.5" cy="99.5" r="89.5" stroke="#1E80B8" stroke-width="10"/>
</svg>
