<svg width="161" height="179" viewBox="0 0 161 179" fill="none" xmlns="http://www.w3.org/2000/svg">
<path fill-rule="evenodd" clip-rule="evenodd" d="M64.3991 148.427C64.6581 148.715 65.0151 148.897 65.4007 148.937C65.7863 148.977 66.1729 148.872 66.4853 148.642L74.8119 142.515C74.994 142.381 75.1447 142.208 75.2536 142.01C75.3625 141.812 75.427 141.592 75.4426 141.366C75.4582 141.14 75.4246 140.914 75.344 140.702C75.2634 140.491 75.1378 140.299 74.9759 140.141C74.7603 139.93 74.5492 139.715 74.343 139.495C71.2194 136.176 68.4636 131.263 66.0965 125.21C64.4441 120.984 62.9917 116.24 61.7909 111.091C67.713 110.222 73.9609 109.84 80.4096 110.015H80.4209C86.8164 110.143 92.9827 110.822 98.7984 111.97C97.6456 116.772 96.274 121.206 94.728 125.184C92.3752 131.234 89.6471 136.155 86.5362 139.478C85.9889 140.069 85.4025 140.624 84.7812 141.137C84.618 141.269 84.4832 141.434 84.385 141.619C84.2869 141.805 84.2273 142.009 84.21 142.218C84.1926 142.428 84.2178 142.639 84.284 142.838C84.3503 143.038 84.4562 143.222 84.5954 143.379C85.2772 144.154 85.7814 145.068 86.0727 146.058C86.3639 147.048 86.4352 148.09 86.2815 149.11C86.2465 149.346 86.2659 149.586 86.3381 149.813C86.4104 150.04 86.5336 150.247 86.6984 150.419C86.8631 150.591 87.0651 150.723 87.2887 150.805C87.5124 150.887 87.7518 150.917 87.9887 150.892C90.2438 150.654 92.486 150.307 94.7078 149.852C95.0074 149.791 95.283 149.643 95.4995 149.425C98.4636 146.456 101.204 142.548 103.553 137.741C106.562 131.582 109.034 123.9 110.783 115.156C117.123 117.312 122.825 120.068 127.667 123.288C129.222 124.317 130.722 125.429 132.159 126.619C132.474 126.881 132.88 127.008 133.289 126.973C133.697 126.938 134.076 126.744 134.342 126.432C136.528 123.876 138.531 121.167 140.334 118.327C140.542 118 140.62 117.608 140.554 117.226C140.489 116.844 140.283 116.501 139.978 116.262C138.254 114.916 136.459 113.664 134.601 112.51C128.359 108.625 120.922 105.437 112.641 103.169C113.322 97.1625 113.688 90.8157 113.695 84.2464C125.69 83.8232 137.634 83.3865 149.672 83.2547L149.746 83.2562C150.157 83.26 150.554 83.1012 150.848 82.8143C151.143 82.5274 151.313 82.1357 151.32 81.7243C151.337 80.8443 151.337 79.9639 151.32 79.0839C151.314 78.711 151.173 78.3529 150.925 78.0745C150.677 77.7961 150.337 77.6158 149.968 77.5663C141.667 76.4532 133.435 75.3865 125.115 74.5011C121.183 74.0823 117.247 73.7015 113.308 73.3588C112.857 66.8502 112.07 60.6082 110.989 54.7505C119.368 52.2232 126.843 48.7932 133.04 44.6816C134.667 43.6053 136.241 42.4529 137.759 41.2284C138.069 40.9778 138.271 40.6182 138.324 40.2234C138.377 39.8285 138.277 39.4283 138.045 39.1048C137.142 37.8487 136.199 36.6223 135.216 35.4277C134.966 35.1229 134.609 34.9244 134.218 34.8722C133.827 34.8199 133.43 34.9178 133.109 35.146C131.723 36.1248 130.294 37.0396 128.825 37.8876C123.164 41.1663 116.45 43.809 109.001 45.6524C107.729 40.6681 106.23 36.0606 104.538 31.9206C100.06 20.9625 94.1894 13.2666 87.9167 10.0277C87.7405 9.93672 87.5486 9.88028 87.3512 9.86139C85.0583 9.6394 82.756 9.52841 80.4523 9.52881C78.1675 9.52831 75.884 9.6373 73.6096 9.8554C73.4117 9.87466 73.2193 9.93134 73.0426 10.0224C66.7699 13.2614 60.91 20.9745 56.4471 31.9535C54.9227 35.7026 53.5542 39.8344 52.3692 44.2824C45.2239 42.1236 38.8216 39.2359 33.4516 35.8045C32.1331 34.9641 30.8513 34.0677 29.6096 33.1176C29.2969 32.8773 28.9048 32.7644 28.5123 32.8015C28.1197 32.8386 27.7557 33.023 27.4935 33.3176C25.2289 35.8618 23.1497 38.5651 21.2718 41.4067C21.052 41.7399 20.9681 42.1446 21.0373 42.5377C21.1065 42.9309 21.3236 43.2825 21.6441 43.5206C23.2441 44.7049 24.9002 45.8116 26.6066 46.8367C33.1602 50.7827 41.0179 53.9745 49.7759 56.1738C48.8381 61.5693 48.146 67.2749 47.7347 73.2022C40.9617 73.803 34.2224 74.5445 27.4516 75.3558C21.9175 76.0187 16.4493 76.7865 10.9257 77.567C10.5584 77.619 10.2216 77.8001 9.97569 78.078C9.72983 78.3558 9.59101 78.7122 9.58416 79.0831C9.56758 79.9634 9.56733 80.844 9.58341 81.7243C9.58726 81.9335 9.63312 82.1398 9.71827 82.3309C9.80342 82.522 9.92612 82.6941 10.0791 82.8368C10.232 82.9796 10.4121 83.0901 10.6087 83.1619C10.8052 83.2337 11.0142 83.2652 11.2231 83.2547C16.7797 83.3775 22.277 83.5782 27.8284 83.7415C34.3519 83.9341 40.8358 84.1797 47.3385 84.4015C47.3437 91.4457 47.7654 98.2314 48.5452 104.616C40.6029 107.186 33.5115 110.598 27.5969 114.647C25.7966 115.876 24.0636 117.2 22.4051 118.614C22.1115 118.865 21.9214 119.216 21.8717 119.6C21.822 119.983 21.9163 120.371 22.1362 120.688C22.9794 121.906 23.8605 123.098 24.7782 124.261C25.0319 124.582 25.4019 124.791 25.8083 124.842C26.2147 124.893 26.625 124.783 26.9505 124.534C28.5152 123.343 30.1439 122.238 31.8291 121.224C37.0373 118.079 43.1542 115.492 49.9242 113.595C51.674 122.968 54.2433 131.187 57.4029 137.709C59.483 142.003 61.8613 145.598 64.3991 148.427ZM102.558 84.6262C102.31 90.0024 101.786 95.3623 100.987 100.685C94.4471 99.6644 87.546 99.1842 80.4209 99.3266L80.4096 99.3273C73.2883 99.5191 66.4216 100.316 59.9482 101.634C59.0988 96.2839 58.5078 90.6202 58.2224 84.7385C61.9377 84.8412 65.6516 84.9296 69.3714 85.0007C73.0658 85.0719 76.7602 85.1326 80.4553 85.1221C84.1519 85.1123 87.8448 85.0284 91.54 84.9386C95.2171 84.8494 98.8868 84.743 102.558 84.6262ZM101.775 57.0839C102.344 62.0007 102.682 67.1768 102.765 72.5386C99.0681 72.2824 95.3714 72.0629 91.6643 71.9018C87.9302 71.7393 84.1954 71.6209 80.4576 71.6097C76.7197 71.5977 72.9834 71.6921 69.2486 71.8337C65.4988 71.976 61.7564 72.167 58.0149 72.4097C58.0988 67.4419 58.4029 62.6344 58.9055 58.0464C65.7415 59.1505 72.9887 59.6764 80.4823 59.5326L80.4958 59.5318C87.9175 59.3236 95.0628 58.4771 101.775 57.0839ZM100.296 47.3857C94.0276 48.346 87.3767 48.77 80.4958 48.5768H80.4823C73.5692 48.4434 66.925 47.6824 60.6973 46.3925C61.5482 42.1797 62.5834 38.2494 63.7812 34.6681C65.8913 28.3603 68.4388 23.1341 71.3916 19.4629C74.0868 16.1116 77.086 14.0801 80.4239 13.9385C83.7939 14.0786 86.7887 16.1191 89.4763 19.4831C92.4134 23.1603 94.943 28.3895 97.0396 34.6959C98.3212 38.5498 99.4156 42.8067 100.296 47.3857Z" fill="#92D7FF"/>
<path fill-rule="evenodd" clip-rule="evenodd" d="M116.84 104.422C110.068 110.443 103.341 116.545 95.9737 121.766C95.5823 122.913 95.167 124.053 94.728 125.183C92.3752 131.234 89.6471 136.155 86.5363 139.478C85.9889 140.069 85.4026 140.624 84.7812 141.137C84.618 141.269 84.4832 141.434 84.3851 141.619C84.2869 141.805 84.2274 142.009 84.21 142.218C84.1926 142.428 84.2178 142.639 84.2841 142.838C84.3503 143.038 84.4562 143.222 84.5954 143.379C85.2772 144.154 85.7814 145.068 86.0727 146.058C86.364 147.048 86.4352 148.09 86.2816 149.11C86.2465 149.346 86.2659 149.586 86.3382 149.813C86.4104 150.04 86.5336 150.247 86.6984 150.419C86.8631 150.591 87.0651 150.723 87.2887 150.805C87.5124 150.887 87.7518 150.917 87.9887 150.892C90.2438 150.654 92.4861 150.307 94.7078 149.852C95.0074 149.791 95.2831 149.643 95.4995 149.425C98.4636 146.456 101.204 142.548 103.553 137.741C106.562 131.582 109.034 123.9 110.783 115.156C117.124 117.312 122.825 120.068 127.667 123.288C129.222 124.317 130.722 125.429 132.159 126.619C132.474 126.881 132.88 127.008 133.289 126.973C133.697 126.938 134.076 126.744 134.342 126.432C136.528 123.876 138.531 121.167 140.334 118.327C140.542 118 140.62 117.608 140.554 117.226C140.489 116.844 140.283 116.501 139.978 116.262C138.254 114.916 136.459 113.664 134.601 112.51C129.434 109.293 123.446 106.555 116.84 104.422ZM70.7879 134.799C66.6456 136.413 62.4464 137.9 58.2344 139.357C60.1078 142.93 62.1932 145.969 64.3992 148.427C64.6581 148.715 65.0152 148.897 65.4008 148.937C65.7864 148.977 66.173 148.872 66.4853 148.642L74.8119 142.515C74.994 142.381 75.1447 142.208 75.2536 142.01C75.3625 141.812 75.427 141.592 75.4426 141.366C75.4582 141.14 75.4246 140.914 75.344 140.702C75.2634 140.491 75.1378 140.299 74.9759 140.141C74.7603 139.93 74.5493 139.715 74.343 139.495C73.0988 138.173 71.913 136.598 70.7879 134.799ZM142.91 76.6329C142.079 77.8277 141.208 78.9944 140.3 80.1311C139.401 81.2629 138.506 82.3783 137.609 83.4779C141.622 83.3768 145.641 83.2989 149.672 83.2547L149.746 83.2562C150.157 83.26 150.554 83.1012 150.849 82.8143C151.143 82.5274 151.313 82.1357 151.321 81.7243C151.337 80.8443 151.337 79.9639 151.321 79.0839C151.314 78.711 151.173 78.3529 150.925 78.0745C150.677 77.7961 150.337 77.6158 149.968 77.5663C147.611 77.2502 145.26 76.9378 142.91 76.6329Z" fill="#6AC9FF"/>
<path fill-rule="evenodd" clip-rule="evenodd" d="M56.9049 156.342C57.2711 156.455 57.6663 156.43 58.0152 156.271C58.3641 156.112 58.6421 155.83 58.7963 155.479C59.2966 154.338 60.0878 153.349 61.0906 152.611L65.7184 149.207C65.9584 149.03 66.1426 148.787 66.2492 148.509C66.3559 148.23 66.3805 147.927 66.3201 147.634C66.2597 147.342 66.117 147.073 65.9086 146.86C65.7003 146.646 65.4352 146.497 65.1446 146.429C35.1116 139.485 12.6929 112.545 12.6929 80.409C12.6929 43.012 43.0547 12.6494 80.4524 12.6494C117.849 12.6494 148.211 43.012 148.211 80.409C148.211 115.372 121.675 144.185 87.6607 147.788C87.3166 147.825 86.9944 147.975 86.7447 148.214C86.495 148.454 86.3319 148.769 86.2809 149.112C86.2523 149.305 86.2158 149.496 86.1715 149.686C86.1188 149.911 86.1165 150.144 86.1647 150.369C86.213 150.595 86.3106 150.806 86.4506 150.99C86.5906 151.173 86.7694 151.322 86.9743 151.428C87.1791 151.534 87.4048 151.593 87.6352 151.601C100.651 152.07 111.207 151.299 119.793 149.395C119.949 149.36 120.099 149.302 120.237 149.221C143.965 135.465 159.937 109.787 159.937 80.409C159.937 36.5401 124.321 0.923584 80.4524 0.923584C36.5828 0.923584 0.967041 36.5401 0.967041 80.409C0.967041 116.083 24.5198 146.3 56.9049 156.342Z" fill="#1E80B8"/>
<path fill-rule="evenodd" clip-rule="evenodd" d="M159.937 80.3566C161.685 106.857 162.021 130.155 146.619 146.316C136.295 157.148 118.87 164.807 89.4494 167.813C89.6432 170.257 88.9482 172.689 87.4921 174.662C84.1476 179.208 77.7416 180.183 73.1955 176.838L59.2412 166.569C57.9498 165.619 56.8999 164.379 56.1763 162.948C55.4527 161.517 55.0757 159.937 55.0757 158.333C55.0757 156.73 55.4527 155.149 56.1763 153.719C56.8999 152.288 57.9498 151.047 59.2412 150.097L73.1955 139.829C77.7416 136.484 84.1476 137.459 87.4921 142.005C88.8833 143.89 89.5817 146.197 89.4697 148.537C113.738 149.218 128.963 145.436 138.646 137.646C146.306 131.481 150.418 123.188 152.837 113.536C152.886 113.342 152.933 113.148 152.981 112.954C157.45 103.019 159.937 92.0023 159.937 80.409V80.3566Z" fill="#FF7300"/>
<path fill-rule="evenodd" clip-rule="evenodd" d="M160.712 104.718C155.644 125.884 128.986 145.418 138.646 137.646C146.306 131.481 150.418 123.188 152.838 113.536C152.886 113.342 152.933 113.148 152.981 112.954C157.45 103.019 159.937 92.0023 159.937 80.409V80.3566C160.497 88.8502 160.913 97.0142 160.712 104.718Z" fill="#FF4E00"/>
</svg>
