<svg width="188" height="188" viewBox="0 0 188 188" fill="none" xmlns="http://www.w3.org/2000/svg">
<path fill-rule="evenodd" clip-rule="evenodd" d="M25.25 81.5C25.25 43.5562 56.0562 12.75 94 12.75C131.944 12.75 162.75 43.5562 162.75 81.5C162.75 83.1576 163.408 84.7473 164.581 85.9194C165.753 87.0915 167.342 87.75 169 87.75C170.658 87.75 172.247 87.0915 173.419 85.9194C174.592 84.7473 175.25 83.1576 175.25 81.5C175.25 36.6562 138.844 0.25 94 0.25C49.1562 0.25 12.75 36.6562 12.75 81.5C12.75 83.1576 13.4085 84.7473 14.5806 85.9194C15.7527 87.0915 17.3424 87.75 19 87.75C20.6576 87.75 22.2473 87.0915 23.4194 85.9194C24.5915 84.7473 25.25 83.1576 25.25 81.5ZM106.5 175.25H156.5C161.475 175.25 166.244 173.275 169.756 169.756C171.499 168.016 172.881 165.95 173.823 163.675C174.766 161.401 175.251 158.962 175.25 156.5V119C175.25 117.342 174.592 115.753 173.419 114.581C172.247 113.408 170.658 112.75 169 112.75C167.342 112.75 165.753 113.408 164.581 114.581C163.408 115.753 162.75 117.342 162.75 119V156.5C162.752 157.321 162.592 158.135 162.279 158.895C161.966 159.654 161.506 160.344 160.925 160.925C160.344 161.506 159.654 161.966 158.895 162.279C158.135 162.592 157.321 162.752 156.5 162.75H106.5C104.842 162.75 103.253 163.408 102.081 164.581C100.908 165.753 100.25 167.342 100.25 169C100.25 170.658 100.908 172.247 102.081 173.419C103.253 174.592 104.842 175.25 106.5 175.25Z" fill="#1E80B8"/>
<path fill-rule="evenodd" clip-rule="evenodd" d="M37.75 81.5C37.75 79.8424 37.0915 78.2527 35.9194 77.0806C34.7473 75.9085 33.1576 75.25 31.5 75.25H19C14.0272 75.25 9.25805 77.2254 5.74175 80.7417C2.22544 84.2581 0.25 89.0272 0.25 94V106.5C0.25 111.473 2.22544 116.242 5.74175 119.758C9.25805 123.275 14.0272 125.25 19 125.25H31.5C33.1576 125.25 34.7473 124.592 35.9194 123.419C37.0915 122.247 37.75 120.658 37.75 119V81.5ZM187.75 106.5V94C187.75 89.0272 185.775 84.2581 182.258 80.7417C178.742 77.2254 173.973 75.25 169 75.25H156.5C154.842 75.25 153.253 75.9085 152.081 77.0806C150.908 78.2527 150.25 79.8424 150.25 81.5V119C150.25 120.658 150.908 122.247 152.081 123.419C153.253 124.592 154.842 125.25 156.5 125.25H169C173.973 125.25 178.742 123.275 182.258 119.758C185.775 116.242 187.75 111.473 187.75 106.5ZM75.25 169C75.25 173.973 77.2254 178.742 80.7417 182.258C84.258 185.775 89.0272 187.75 94 187.75C98.9728 187.75 103.742 185.775 107.258 182.258C110.775 178.742 112.75 173.973 112.75 169C112.75 164.027 110.775 159.258 107.258 155.742C103.742 152.225 98.9728 150.25 94 150.25C89.0272 150.25 84.258 152.225 80.7417 155.742C77.2254 159.258 75.25 164.027 75.25 169Z" fill="#FF7300"/>
<path fill-rule="evenodd" clip-rule="evenodd" d="M128.006 109.013C123.909 114.085 118.728 118.177 112.844 120.986C106.959 123.796 100.521 125.253 94 125.25C87.5292 125.254 81.1385 123.82 75.2898 121.052C69.4411 118.284 64.2805 114.25 60.1812 109.244C59.1148 108.011 57.6091 107.244 55.985 107.105C54.361 106.967 52.7471 107.469 51.4876 108.503C50.228 109.538 49.4225 111.023 49.2426 112.643C49.0628 114.263 49.523 115.889 50.525 117.175C55.7942 123.612 62.4282 128.797 69.947 132.355C77.4659 135.913 85.6816 137.756 94 137.75C102.383 137.756 110.661 135.884 118.226 132.273C125.791 128.662 132.451 123.403 137.719 116.881C138.676 115.586 139.096 113.971 138.892 112.373C138.689 110.775 137.876 109.317 136.625 108.303C135.373 107.289 133.779 106.797 132.173 106.929C130.568 107.061 129.075 107.807 128.006 109.013Z" fill="#FF4E00"/>
</svg>
